<mxfile host="Electron" agent="Mozilla/5.0 (Windows NT 10.0; Win64; x64) AppleWebKit/537.36 (KHTML, like Gecko) draw.io/26.0.16 Chrome/132.0.6834.196 Electron/34.2.0 Safari/537.36" version="26.0.16">
  <diagram id="C5RBs43oDa-KdzZeNtuy" name="Page-1">
    <mxGraphModel dx="2108" dy="1196" grid="1" gridSize="10" guides="1" tooltips="1" connect="1" arrows="1" fold="1" page="1" pageScale="1" pageWidth="827" pageHeight="1169" math="0" shadow="0">
      <root>
        <mxCell id="WIyWlLk6GJQsqaUBKTNV-0" />
        <mxCell id="WIyWlLk6GJQsqaUBKTNV-1" parent="WIyWlLk6GJQsqaUBKTNV-0" />
        <mxCell id="Oq5GghOHbWDhTfEL8BB2-364" value="" style="rounded=0;whiteSpace=wrap;html=1;fontFamily=Helvetica;fontSize=11;fontColor=default;labelBackgroundColor=default;glass=0;fillColor=none;" parent="WIyWlLk6GJQsqaUBKTNV-1" vertex="1">
          <mxGeometry x="1810" y="1360" width="1120" height="1350" as="geometry" />
        </mxCell>
        <mxCell id="Oq5GghOHbWDhTfEL8BB2-341" value="" style="rounded=0;whiteSpace=wrap;html=1;fontFamily=Helvetica;fontSize=11;fontColor=default;labelBackgroundColor=default;glass=0;fillColor=none;" parent="WIyWlLk6GJQsqaUBKTNV-1" vertex="1">
          <mxGeometry x="30" y="1360" width="1780" height="1350" as="geometry" />
        </mxCell>
        <mxCell id="Oq5GghOHbWDhTfEL8BB2-339" value="" style="rounded=0;whiteSpace=wrap;html=1;fontFamily=Helvetica;fontSize=11;fontColor=default;labelBackgroundColor=default;glass=0;fillColor=none;" parent="WIyWlLk6GJQsqaUBKTNV-1" vertex="1">
          <mxGeometry x="1810" y="10" width="1120" height="1350" as="geometry" />
        </mxCell>
        <mxCell id="Oq5GghOHbWDhTfEL8BB2-337" value="" style="rounded=0;whiteSpace=wrap;html=1;fontFamily=Helvetica;fontSize=11;fontColor=default;labelBackgroundColor=default;glass=0;fillColor=none;" parent="WIyWlLk6GJQsqaUBKTNV-1" vertex="1">
          <mxGeometry x="30" y="10" width="1780" height="1350" as="geometry" />
        </mxCell>
        <mxCell id="Oq5GghOHbWDhTfEL8BB2-0" value="Player" style="swimlane;fontStyle=2;align=center;verticalAlign=top;childLayout=stackLayout;horizontal=1;startSize=26;horizontalStack=0;resizeParent=1;resizeLast=0;collapsible=1;marginBottom=0;rounded=0;shadow=0;strokeWidth=1;" parent="WIyWlLk6GJQsqaUBKTNV-1" vertex="1">
          <mxGeometry x="80" y="280" width="200" height="216" as="geometry">
            <mxRectangle x="230" y="140" width="160" height="26" as="alternateBounds" />
          </mxGeometry>
        </mxCell>
        <mxCell id="Oq5GghOHbWDhTfEL8BB2-1" value="+ PlayerController controller" style="text;align=left;verticalAlign=top;spacingLeft=4;spacingRight=4;overflow=hidden;rotatable=0;points=[[0,0.5],[1,0.5]];portConstraint=eastwest;" parent="Oq5GghOHbWDhTfEL8BB2-0" vertex="1">
          <mxGeometry y="26" width="200" height="26" as="geometry" />
        </mxCell>
        <mxCell id="Oq5GghOHbWDhTfEL8BB2-2" value="+ PlayerCondition condition" style="text;align=left;verticalAlign=top;spacingLeft=4;spacingRight=4;overflow=hidden;rotatable=0;points=[[0,0.5],[1,0.5]];portConstraint=eastwest;rounded=0;shadow=0;html=0;" parent="Oq5GghOHbWDhTfEL8BB2-0" vertex="1">
          <mxGeometry y="52" width="200" height="26" as="geometry" />
        </mxCell>
        <mxCell id="Oq5GghOHbWDhTfEL8BB2-3" value="+ Equipment equip" style="text;align=left;verticalAlign=top;spacingLeft=4;spacingRight=4;overflow=hidden;rotatable=0;points=[[0,0.5],[1,0.5]];portConstraint=eastwest;rounded=0;shadow=0;html=0;" parent="Oq5GghOHbWDhTfEL8BB2-0" vertex="1">
          <mxGeometry y="78" width="200" height="26" as="geometry" />
        </mxCell>
        <mxCell id="Oq5GghOHbWDhTfEL8BB2-6" value="+ ItemData itemData" style="text;align=left;verticalAlign=top;spacingLeft=4;spacingRight=4;overflow=hidden;rotatable=0;points=[[0,0.5],[1,0.5]];portConstraint=eastwest;rounded=0;shadow=0;html=0;" parent="Oq5GghOHbWDhTfEL8BB2-0" vertex="1">
          <mxGeometry y="104" width="200" height="26" as="geometry" />
        </mxCell>
        <mxCell id="Oq5GghOHbWDhTfEL8BB2-7" value="+ Action addItem" style="text;align=left;verticalAlign=top;spacingLeft=4;spacingRight=4;overflow=hidden;rotatable=0;points=[[0,0.5],[1,0.5]];portConstraint=eastwest;rounded=0;shadow=0;html=0;" parent="Oq5GghOHbWDhTfEL8BB2-0" vertex="1">
          <mxGeometry y="130" width="200" height="26" as="geometry" />
        </mxCell>
        <mxCell id="Oq5GghOHbWDhTfEL8BB2-8" value="+ Transform dropPosition" style="text;align=left;verticalAlign=top;spacingLeft=4;spacingRight=4;overflow=hidden;rotatable=0;points=[[0,0.5],[1,0.5]];portConstraint=eastwest;rounded=0;shadow=0;html=0;" parent="Oq5GghOHbWDhTfEL8BB2-0" vertex="1">
          <mxGeometry y="156" width="200" height="26" as="geometry" />
        </mxCell>
        <mxCell id="Oq5GghOHbWDhTfEL8BB2-4" value="" style="line;html=1;strokeWidth=1;align=left;verticalAlign=middle;spacingTop=-1;spacingLeft=3;spacingRight=3;rotatable=0;labelPosition=right;points=[];portConstraint=eastwest;" parent="Oq5GghOHbWDhTfEL8BB2-0" vertex="1">
          <mxGeometry y="182" width="200" height="8" as="geometry" />
        </mxCell>
        <mxCell id="Oq5GghOHbWDhTfEL8BB2-88" value="- void Awake()" style="text;align=left;verticalAlign=top;spacingLeft=4;spacingRight=4;overflow=hidden;rotatable=0;points=[[0,0.5],[1,0.5]];portConstraint=eastwest;rounded=0;shadow=0;html=0;" parent="Oq5GghOHbWDhTfEL8BB2-0" vertex="1">
          <mxGeometry y="190" width="200" height="26" as="geometry" />
        </mxCell>
        <mxCell id="Oq5GghOHbWDhTfEL8BB2-9" value="PlayerCondition" style="swimlane;fontStyle=2;align=center;verticalAlign=top;childLayout=stackLayout;horizontal=1;startSize=26;horizontalStack=0;resizeParent=1;resizeLast=0;collapsible=1;marginBottom=0;rounded=0;shadow=0;strokeWidth=1;" parent="WIyWlLk6GJQsqaUBKTNV-1" vertex="1">
          <mxGeometry x="360" y="280" width="280" height="354" as="geometry">
            <mxRectangle x="230" y="140" width="160" height="26" as="alternateBounds" />
          </mxGeometry>
        </mxCell>
        <mxCell id="Oq5GghOHbWDhTfEL8BB2-10" value="+ UICondition uiCondition" style="text;align=left;verticalAlign=top;spacingLeft=4;spacingRight=4;overflow=hidden;rotatable=0;points=[[0,0.5],[1,0.5]];portConstraint=eastwest;" parent="Oq5GghOHbWDhTfEL8BB2-9" vertex="1">
          <mxGeometry y="26" width="280" height="26" as="geometry" />
        </mxCell>
        <mxCell id="Oq5GghOHbWDhTfEL8BB2-11" value="- Condition health" style="text;align=left;verticalAlign=top;spacingLeft=4;spacingRight=4;overflow=hidden;rotatable=0;points=[[0,0.5],[1,0.5]];portConstraint=eastwest;rounded=0;shadow=0;html=0;" parent="Oq5GghOHbWDhTfEL8BB2-9" vertex="1">
          <mxGeometry y="52" width="280" height="26" as="geometry" />
        </mxCell>
        <mxCell id="Oq5GghOHbWDhTfEL8BB2-12" value="- Condition hunger" style="text;align=left;verticalAlign=top;spacingLeft=4;spacingRight=4;overflow=hidden;rotatable=0;points=[[0,0.5],[1,0.5]];portConstraint=eastwest;rounded=0;shadow=0;html=0;" parent="Oq5GghOHbWDhTfEL8BB2-9" vertex="1">
          <mxGeometry y="78" width="280" height="26" as="geometry" />
        </mxCell>
        <mxCell id="Oq5GghOHbWDhTfEL8BB2-13" value="- Condition stamina" style="text;align=left;verticalAlign=top;spacingLeft=4;spacingRight=4;overflow=hidden;rotatable=0;points=[[0,0.5],[1,0.5]];portConstraint=eastwest;rounded=0;shadow=0;html=0;" parent="Oq5GghOHbWDhTfEL8BB2-9" vertex="1">
          <mxGeometry y="104" width="280" height="26" as="geometry" />
        </mxCell>
        <mxCell id="Oq5GghOHbWDhTfEL8BB2-14" value="+ float noHungerHealthDecay" style="text;align=left;verticalAlign=top;spacingLeft=4;spacingRight=4;overflow=hidden;rotatable=0;points=[[0,0.5],[1,0.5]];portConstraint=eastwest;rounded=0;shadow=0;html=0;" parent="Oq5GghOHbWDhTfEL8BB2-9" vertex="1">
          <mxGeometry y="130" width="280" height="26" as="geometry" />
        </mxCell>
        <mxCell id="Oq5GghOHbWDhTfEL8BB2-15" value="+ event Action onTakeDamage" style="text;align=left;verticalAlign=top;spacingLeft=4;spacingRight=4;overflow=hidden;rotatable=0;points=[[0,0.5],[1,0.5]];portConstraint=eastwest;rounded=0;shadow=0;html=0;" parent="Oq5GghOHbWDhTfEL8BB2-9" vertex="1">
          <mxGeometry y="156" width="280" height="26" as="geometry" />
        </mxCell>
        <mxCell id="Oq5GghOHbWDhTfEL8BB2-16" value="" style="line;html=1;strokeWidth=1;align=left;verticalAlign=middle;spacingTop=-1;spacingLeft=3;spacingRight=3;rotatable=0;labelPosition=right;points=[];portConstraint=eastwest;" parent="Oq5GghOHbWDhTfEL8BB2-9" vertex="1">
          <mxGeometry y="182" width="280" height="8" as="geometry" />
        </mxCell>
        <mxCell id="Oq5GghOHbWDhTfEL8BB2-87" value="- void Update()" style="text;align=left;verticalAlign=top;spacingLeft=4;spacingRight=4;overflow=hidden;rotatable=0;points=[[0,0.5],[1,0.5]];portConstraint=eastwest;rounded=0;shadow=0;html=0;" parent="Oq5GghOHbWDhTfEL8BB2-9" vertex="1">
          <mxGeometry y="190" width="280" height="26" as="geometry" />
        </mxCell>
        <mxCell id="Oq5GghOHbWDhTfEL8BB2-89" value="" style="line;html=1;strokeWidth=1;align=left;verticalAlign=middle;spacingTop=-1;spacingLeft=3;spacingRight=3;rotatable=0;labelPosition=right;points=[];portConstraint=eastwest;" parent="Oq5GghOHbWDhTfEL8BB2-9" vertex="1">
          <mxGeometry y="216" width="280" height="8" as="geometry" />
        </mxCell>
        <mxCell id="Oq5GghOHbWDhTfEL8BB2-22" value="+ void Heal(float value)" style="text;align=left;verticalAlign=top;spacingLeft=4;spacingRight=4;overflow=hidden;rotatable=0;points=[[0,0.5],[1,0.5]];portConstraint=eastwest;rounded=0;shadow=0;html=0;" parent="Oq5GghOHbWDhTfEL8BB2-9" vertex="1">
          <mxGeometry y="224" width="280" height="26" as="geometry" />
        </mxCell>
        <mxCell id="Oq5GghOHbWDhTfEL8BB2-24" value="+ void Eat(float value)" style="text;align=left;verticalAlign=top;spacingLeft=4;spacingRight=4;overflow=hidden;rotatable=0;points=[[0,0.5],[1,0.5]];portConstraint=eastwest;rounded=0;shadow=0;html=0;" parent="Oq5GghOHbWDhTfEL8BB2-9" vertex="1">
          <mxGeometry y="250" width="280" height="26" as="geometry" />
        </mxCell>
        <mxCell id="Oq5GghOHbWDhTfEL8BB2-25" value="+ void Die()" style="text;align=left;verticalAlign=top;spacingLeft=4;spacingRight=4;overflow=hidden;rotatable=0;points=[[0,0.5],[1,0.5]];portConstraint=eastwest;rounded=0;shadow=0;html=0;" parent="Oq5GghOHbWDhTfEL8BB2-9" vertex="1">
          <mxGeometry y="276" width="280" height="26" as="geometry" />
        </mxCell>
        <mxCell id="Oq5GghOHbWDhTfEL8BB2-26" value="+ void TakePhysicalDamage(int damage)" style="text;align=left;verticalAlign=top;spacingLeft=4;spacingRight=4;overflow=hidden;rotatable=0;points=[[0,0.5],[1,0.5]];portConstraint=eastwest;rounded=0;shadow=0;html=0;" parent="Oq5GghOHbWDhTfEL8BB2-9" vertex="1">
          <mxGeometry y="302" width="280" height="26" as="geometry" />
        </mxCell>
        <mxCell id="Oq5GghOHbWDhTfEL8BB2-27" value="+ bool UseStamina(float value)" style="text;align=left;verticalAlign=top;spacingLeft=4;spacingRight=4;overflow=hidden;rotatable=0;points=[[0,0.5],[1,0.5]];portConstraint=eastwest;rounded=0;shadow=0;html=0;" parent="Oq5GghOHbWDhTfEL8BB2-9" vertex="1">
          <mxGeometry y="328" width="280" height="26" as="geometry" />
        </mxCell>
        <mxCell id="Oq5GghOHbWDhTfEL8BB2-17" value="IDamagable" style="swimlane;fontStyle=0;align=center;verticalAlign=top;childLayout=stackLayout;horizontal=1;startSize=26;horizontalStack=0;resizeParent=1;resizeLast=0;collapsible=1;marginBottom=0;rounded=0;shadow=0;strokeWidth=1;" parent="WIyWlLk6GJQsqaUBKTNV-1" vertex="1">
          <mxGeometry x="360" y="80" width="240" height="86" as="geometry">
            <mxRectangle x="340" y="380" width="170" height="26" as="alternateBounds" />
          </mxGeometry>
        </mxCell>
        <mxCell id="Oq5GghOHbWDhTfEL8BB2-23" value=" " style="text;align=left;verticalAlign=top;spacingLeft=4;spacingRight=4;overflow=hidden;rotatable=0;points=[[0,0.5],[1,0.5]];portConstraint=eastwest;rounded=0;shadow=0;html=0;" parent="Oq5GghOHbWDhTfEL8BB2-17" vertex="1">
          <mxGeometry y="26" width="240" height="26" as="geometry" />
        </mxCell>
        <mxCell id="Oq5GghOHbWDhTfEL8BB2-19" value="" style="line;html=1;strokeWidth=1;align=left;verticalAlign=middle;spacingTop=-1;spacingLeft=3;spacingRight=3;rotatable=0;labelPosition=right;points=[];portConstraint=eastwest;" parent="Oq5GghOHbWDhTfEL8BB2-17" vertex="1">
          <mxGeometry y="52" width="240" height="8" as="geometry" />
        </mxCell>
        <mxCell id="Oq5GghOHbWDhTfEL8BB2-18" value="void TakePhysicalDamage(int damage)" style="text;align=left;verticalAlign=top;spacingLeft=4;spacingRight=4;overflow=hidden;rotatable=0;points=[[0,0.5],[1,0.5]];portConstraint=eastwest;" parent="Oq5GghOHbWDhTfEL8BB2-17" vertex="1">
          <mxGeometry y="60" width="240" height="26" as="geometry" />
        </mxCell>
        <mxCell id="Oq5GghOHbWDhTfEL8BB2-28" value="PlayerController" style="swimlane;fontStyle=2;align=center;verticalAlign=top;childLayout=stackLayout;horizontal=1;startSize=26;horizontalStack=0;resizeParent=1;resizeLast=0;collapsible=1;marginBottom=0;rounded=0;shadow=0;strokeWidth=1;" parent="WIyWlLk6GJQsqaUBKTNV-1" vertex="1">
          <mxGeometry x="720" y="280" width="280" height="692" as="geometry">
            <mxRectangle x="230" y="140" width="160" height="26" as="alternateBounds" />
          </mxGeometry>
        </mxCell>
        <mxCell id="Oq5GghOHbWDhTfEL8BB2-29" value="+ float moveSpeed;" style="text;align=left;verticalAlign=top;spacingLeft=4;spacingRight=4;overflow=hidden;rotatable=0;points=[[0,0.5],[1,0.5]];portConstraint=eastwest;" parent="Oq5GghOHbWDhTfEL8BB2-28" vertex="1">
          <mxGeometry y="26" width="280" height="26" as="geometry" />
        </mxCell>
        <mxCell id="Oq5GghOHbWDhTfEL8BB2-30" value="+ float jumpPower;" style="text;align=left;verticalAlign=top;spacingLeft=4;spacingRight=4;overflow=hidden;rotatable=0;points=[[0,0.5],[1,0.5]];portConstraint=eastwest;rounded=0;shadow=0;html=0;" parent="Oq5GghOHbWDhTfEL8BB2-28" vertex="1">
          <mxGeometry y="52" width="280" height="26" as="geometry" />
        </mxCell>
        <mxCell id="Oq5GghOHbWDhTfEL8BB2-31" value="- Vector2 curMovementInput;" style="text;align=left;verticalAlign=top;spacingLeft=4;spacingRight=4;overflow=hidden;rotatable=0;points=[[0,0.5],[1,0.5]];portConstraint=eastwest;rounded=0;shadow=0;html=0;" parent="Oq5GghOHbWDhTfEL8BB2-28" vertex="1">
          <mxGeometry y="78" width="280" height="26" as="geometry" />
        </mxCell>
        <mxCell id="Oq5GghOHbWDhTfEL8BB2-32" value="+ LayerMask groundLayerMask;" style="text;align=left;verticalAlign=top;spacingLeft=4;spacingRight=4;overflow=hidden;rotatable=0;points=[[0,0.5],[1,0.5]];portConstraint=eastwest;rounded=0;shadow=0;html=0;" parent="Oq5GghOHbWDhTfEL8BB2-28" vertex="1">
          <mxGeometry y="104" width="280" height="26" as="geometry" />
        </mxCell>
        <mxCell id="Oq5GghOHbWDhTfEL8BB2-33" value="+ Transform cameraContanier;" style="text;align=left;verticalAlign=top;spacingLeft=4;spacingRight=4;overflow=hidden;rotatable=0;points=[[0,0.5],[1,0.5]];portConstraint=eastwest;rounded=0;shadow=0;html=0;" parent="Oq5GghOHbWDhTfEL8BB2-28" vertex="1">
          <mxGeometry y="130" width="280" height="26" as="geometry" />
        </mxCell>
        <mxCell id="Oq5GghOHbWDhTfEL8BB2-34" value="+ float minXLook;" style="text;align=left;verticalAlign=top;spacingLeft=4;spacingRight=4;overflow=hidden;rotatable=0;points=[[0,0.5],[1,0.5]];portConstraint=eastwest;rounded=0;shadow=0;html=0;" parent="Oq5GghOHbWDhTfEL8BB2-28" vertex="1">
          <mxGeometry y="156" width="280" height="26" as="geometry" />
        </mxCell>
        <mxCell id="Oq5GghOHbWDhTfEL8BB2-36" value="+ float maxXLook;" style="text;align=left;verticalAlign=top;spacingLeft=4;spacingRight=4;overflow=hidden;rotatable=0;points=[[0,0.5],[1,0.5]];portConstraint=eastwest;rounded=0;shadow=0;html=0;" parent="Oq5GghOHbWDhTfEL8BB2-28" vertex="1">
          <mxGeometry y="182" width="280" height="26" as="geometry" />
        </mxCell>
        <mxCell id="Oq5GghOHbWDhTfEL8BB2-37" value="- float camCurXRot;" style="text;align=left;verticalAlign=top;spacingLeft=4;spacingRight=4;overflow=hidden;rotatable=0;points=[[0,0.5],[1,0.5]];portConstraint=eastwest;rounded=0;shadow=0;html=0;" parent="Oq5GghOHbWDhTfEL8BB2-28" vertex="1">
          <mxGeometry y="208" width="280" height="26" as="geometry" />
        </mxCell>
        <mxCell id="Oq5GghOHbWDhTfEL8BB2-38" value="+ float lookSensitivity;" style="text;align=left;verticalAlign=top;spacingLeft=4;spacingRight=4;overflow=hidden;rotatable=0;points=[[0,0.5],[1,0.5]];portConstraint=eastwest;rounded=0;shadow=0;html=0;" parent="Oq5GghOHbWDhTfEL8BB2-28" vertex="1">
          <mxGeometry y="234" width="280" height="26" as="geometry" />
        </mxCell>
        <mxCell id="Oq5GghOHbWDhTfEL8BB2-39" value="- Vector2 mouseDelta;" style="text;align=left;verticalAlign=top;spacingLeft=4;spacingRight=4;overflow=hidden;rotatable=0;points=[[0,0.5],[1,0.5]];portConstraint=eastwest;rounded=0;shadow=0;html=0;" parent="Oq5GghOHbWDhTfEL8BB2-28" vertex="1">
          <mxGeometry y="260" width="280" height="26" as="geometry" />
        </mxCell>
        <mxCell id="Oq5GghOHbWDhTfEL8BB2-40" value="+ bool canLook = true;" style="text;align=left;verticalAlign=top;spacingLeft=4;spacingRight=4;overflow=hidden;rotatable=0;points=[[0,0.5],[1,0.5]];portConstraint=eastwest;rounded=0;shadow=0;html=0;" parent="Oq5GghOHbWDhTfEL8BB2-28" vertex="1">
          <mxGeometry y="286" width="280" height="26" as="geometry" />
        </mxCell>
        <mxCell id="Oq5GghOHbWDhTfEL8BB2-46" value="+ Action inventory;" style="text;align=left;verticalAlign=top;spacingLeft=4;spacingRight=4;overflow=hidden;rotatable=0;points=[[0,0.5],[1,0.5]];portConstraint=eastwest;rounded=0;shadow=0;html=0;" parent="Oq5GghOHbWDhTfEL8BB2-28" vertex="1">
          <mxGeometry y="312" width="280" height="26" as="geometry" />
        </mxCell>
        <mxCell id="Oq5GghOHbWDhTfEL8BB2-47" value="- Rigidbody _rigidbody;" style="text;align=left;verticalAlign=top;spacingLeft=4;spacingRight=4;overflow=hidden;rotatable=0;points=[[0,0.5],[1,0.5]];portConstraint=eastwest;rounded=0;shadow=0;html=0;" parent="Oq5GghOHbWDhTfEL8BB2-28" vertex="1">
          <mxGeometry y="338" width="280" height="26" as="geometry" />
        </mxCell>
        <mxCell id="Oq5GghOHbWDhTfEL8BB2-35" value="" style="line;html=1;strokeWidth=1;align=left;verticalAlign=middle;spacingTop=-1;spacingLeft=3;spacingRight=3;rotatable=0;labelPosition=right;points=[];portConstraint=eastwest;" parent="Oq5GghOHbWDhTfEL8BB2-28" vertex="1">
          <mxGeometry y="364" width="280" height="8" as="geometry" />
        </mxCell>
        <mxCell id="Oq5GghOHbWDhTfEL8BB2-85" value="- void Awake()" style="text;align=left;verticalAlign=top;spacingLeft=4;spacingRight=4;overflow=hidden;rotatable=0;points=[[0,0.5],[1,0.5]];portConstraint=eastwest;rounded=0;shadow=0;html=0;" parent="Oq5GghOHbWDhTfEL8BB2-28" vertex="1">
          <mxGeometry y="372" width="280" height="26" as="geometry" />
        </mxCell>
        <mxCell id="Oq5GghOHbWDhTfEL8BB2-86" value="- void Start()" style="text;align=left;verticalAlign=top;spacingLeft=4;spacingRight=4;overflow=hidden;rotatable=0;points=[[0,0.5],[1,0.5]];portConstraint=eastwest;rounded=0;shadow=0;html=0;" parent="Oq5GghOHbWDhTfEL8BB2-28" vertex="1">
          <mxGeometry y="398" width="280" height="26" as="geometry" />
        </mxCell>
        <mxCell id="Oq5GghOHbWDhTfEL8BB2-48" value="- void FixedUpdate()" style="text;align=left;verticalAlign=top;spacingLeft=4;spacingRight=4;overflow=hidden;rotatable=0;points=[[0,0.5],[1,0.5]];portConstraint=eastwest;rounded=0;shadow=0;html=0;" parent="Oq5GghOHbWDhTfEL8BB2-28" vertex="1">
          <mxGeometry y="424" width="280" height="26" as="geometry" />
        </mxCell>
        <mxCell id="Oq5GghOHbWDhTfEL8BB2-84" value="- void LateUpdate()" style="text;align=left;verticalAlign=top;spacingLeft=4;spacingRight=4;overflow=hidden;rotatable=0;points=[[0,0.5],[1,0.5]];portConstraint=eastwest;rounded=0;shadow=0;html=0;" parent="Oq5GghOHbWDhTfEL8BB2-28" vertex="1">
          <mxGeometry y="450" width="280" height="26" as="geometry" />
        </mxCell>
        <mxCell id="Oq5GghOHbWDhTfEL8BB2-90" value="" style="line;html=1;strokeWidth=1;align=left;verticalAlign=middle;spacingTop=-1;spacingLeft=3;spacingRight=3;rotatable=0;labelPosition=right;points=[];portConstraint=eastwest;" parent="Oq5GghOHbWDhTfEL8BB2-28" vertex="1">
          <mxGeometry y="476" width="280" height="8" as="geometry" />
        </mxCell>
        <mxCell id="Oq5GghOHbWDhTfEL8BB2-83" value="- void Move()" style="text;align=left;verticalAlign=top;spacingLeft=4;spacingRight=4;overflow=hidden;rotatable=0;points=[[0,0.5],[1,0.5]];portConstraint=eastwest;rounded=0;shadow=0;html=0;" parent="Oq5GghOHbWDhTfEL8BB2-28" vertex="1">
          <mxGeometry y="484" width="280" height="26" as="geometry" />
        </mxCell>
        <mxCell id="Oq5GghOHbWDhTfEL8BB2-49" value="- void CameraLook()" style="text;align=left;verticalAlign=top;spacingLeft=4;spacingRight=4;overflow=hidden;rotatable=0;points=[[0,0.5],[1,0.5]];portConstraint=eastwest;rounded=0;shadow=0;html=0;" parent="Oq5GghOHbWDhTfEL8BB2-28" vertex="1">
          <mxGeometry y="510" width="280" height="26" as="geometry" />
        </mxCell>
        <mxCell id="Oq5GghOHbWDhTfEL8BB2-50" value="+ void OnMove(InputAction.CallbackContext context)" style="text;align=left;verticalAlign=top;spacingLeft=4;spacingRight=4;overflow=hidden;rotatable=0;points=[[0,0.5],[1,0.5]];portConstraint=eastwest;rounded=0;shadow=0;html=0;" parent="Oq5GghOHbWDhTfEL8BB2-28" vertex="1">
          <mxGeometry y="536" width="280" height="26" as="geometry" />
        </mxCell>
        <mxCell id="Oq5GghOHbWDhTfEL8BB2-51" value="+ void OnLook(InputAction.CallbackContext context)" style="text;align=left;verticalAlign=top;spacingLeft=4;spacingRight=4;overflow=hidden;rotatable=0;points=[[0,0.5],[1,0.5]];portConstraint=eastwest;rounded=0;shadow=0;html=0;" parent="Oq5GghOHbWDhTfEL8BB2-28" vertex="1">
          <mxGeometry y="562" width="280" height="26" as="geometry" />
        </mxCell>
        <mxCell id="Oq5GghOHbWDhTfEL8BB2-52" value="+ void OnJump(InputAction.CallbackContext context)" style="text;align=left;verticalAlign=top;spacingLeft=4;spacingRight=4;overflow=hidden;rotatable=0;points=[[0,0.5],[1,0.5]];portConstraint=eastwest;rounded=0;shadow=0;html=0;" parent="Oq5GghOHbWDhTfEL8BB2-28" vertex="1">
          <mxGeometry y="588" width="280" height="26" as="geometry" />
        </mxCell>
        <mxCell id="Oq5GghOHbWDhTfEL8BB2-53" value="- bool IsGrounded()" style="text;align=left;verticalAlign=top;spacingLeft=4;spacingRight=4;overflow=hidden;rotatable=0;points=[[0,0.5],[1,0.5]];portConstraint=eastwest;rounded=0;shadow=0;html=0;" parent="Oq5GghOHbWDhTfEL8BB2-28" vertex="1">
          <mxGeometry y="614" width="280" height="26" as="geometry" />
        </mxCell>
        <mxCell id="Oq5GghOHbWDhTfEL8BB2-54" value="+ void OnInventory(InputAction.CallbackContext context)" style="text;align=left;verticalAlign=top;spacingLeft=4;spacingRight=4;overflow=hidden;rotatable=0;points=[[0,0.5],[1,0.5]];portConstraint=eastwest;rounded=0;shadow=0;html=0;" parent="Oq5GghOHbWDhTfEL8BB2-28" vertex="1">
          <mxGeometry y="640" width="280" height="26" as="geometry" />
        </mxCell>
        <mxCell id="Oq5GghOHbWDhTfEL8BB2-55" value="- void ToggleCursor()" style="text;align=left;verticalAlign=top;spacingLeft=4;spacingRight=4;overflow=hidden;rotatable=0;points=[[0,0.5],[1,0.5]];portConstraint=eastwest;rounded=0;shadow=0;html=0;" parent="Oq5GghOHbWDhTfEL8BB2-28" vertex="1">
          <mxGeometry y="666" width="280" height="26" as="geometry" />
        </mxCell>
        <mxCell id="Oq5GghOHbWDhTfEL8BB2-58" value="Interaction" style="swimlane;fontStyle=2;align=center;verticalAlign=top;childLayout=stackLayout;horizontal=1;startSize=26;horizontalStack=0;resizeParent=1;resizeLast=0;collapsible=1;marginBottom=0;rounded=0;shadow=0;strokeWidth=1;" parent="WIyWlLk6GJQsqaUBKTNV-1" vertex="1">
          <mxGeometry x="1080" y="280" width="280" height="354" as="geometry">
            <mxRectangle x="230" y="140" width="160" height="26" as="alternateBounds" />
          </mxGeometry>
        </mxCell>
        <mxCell id="Oq5GghOHbWDhTfEL8BB2-59" value="+ float checkRate" style="text;align=left;verticalAlign=top;spacingLeft=4;spacingRight=4;overflow=hidden;rotatable=0;points=[[0,0.5],[1,0.5]];portConstraint=eastwest;" parent="Oq5GghOHbWDhTfEL8BB2-58" vertex="1">
          <mxGeometry y="26" width="280" height="26" as="geometry" />
        </mxCell>
        <mxCell id="Oq5GghOHbWDhTfEL8BB2-60" value="- loat lastCheckTime;" style="text;align=left;verticalAlign=top;spacingLeft=4;spacingRight=4;overflow=hidden;rotatable=0;points=[[0,0.5],[1,0.5]];portConstraint=eastwest;rounded=0;shadow=0;html=0;" parent="Oq5GghOHbWDhTfEL8BB2-58" vertex="1">
          <mxGeometry y="52" width="280" height="26" as="geometry" />
        </mxCell>
        <mxCell id="Oq5GghOHbWDhTfEL8BB2-61" value="+ float maxCheckDistance;" style="text;align=left;verticalAlign=top;spacingLeft=4;spacingRight=4;overflow=hidden;rotatable=0;points=[[0,0.5],[1,0.5]];portConstraint=eastwest;rounded=0;shadow=0;html=0;" parent="Oq5GghOHbWDhTfEL8BB2-58" vertex="1">
          <mxGeometry y="78" width="280" height="26" as="geometry" />
        </mxCell>
        <mxCell id="Oq5GghOHbWDhTfEL8BB2-62" value="+ LayerMask layerMask;" style="text;align=left;verticalAlign=top;spacingLeft=4;spacingRight=4;overflow=hidden;rotatable=0;points=[[0,0.5],[1,0.5]];portConstraint=eastwest;rounded=0;shadow=0;html=0;" parent="Oq5GghOHbWDhTfEL8BB2-58" vertex="1">
          <mxGeometry y="104" width="280" height="26" as="geometry" />
        </mxCell>
        <mxCell id="Oq5GghOHbWDhTfEL8BB2-63" value="+ GameObject curInteractGameObject;" style="text;align=left;verticalAlign=top;spacingLeft=4;spacingRight=4;overflow=hidden;rotatable=0;points=[[0,0.5],[1,0.5]];portConstraint=eastwest;rounded=0;shadow=0;html=0;" parent="Oq5GghOHbWDhTfEL8BB2-58" vertex="1">
          <mxGeometry y="130" width="280" height="26" as="geometry" />
        </mxCell>
        <mxCell id="Oq5GghOHbWDhTfEL8BB2-64" value="- IInteractable curInteractable;" style="text;align=left;verticalAlign=top;spacingLeft=4;spacingRight=4;overflow=hidden;rotatable=0;points=[[0,0.5],[1,0.5]];portConstraint=eastwest;rounded=0;shadow=0;html=0;" parent="Oq5GghOHbWDhTfEL8BB2-58" vertex="1">
          <mxGeometry y="156" width="280" height="26" as="geometry" />
        </mxCell>
        <mxCell id="Oq5GghOHbWDhTfEL8BB2-65" value="+ TextMeshProUGUI promptText;" style="text;align=left;verticalAlign=top;spacingLeft=4;spacingRight=4;overflow=hidden;rotatable=0;points=[[0,0.5],[1,0.5]];portConstraint=eastwest;rounded=0;shadow=0;html=0;" parent="Oq5GghOHbWDhTfEL8BB2-58" vertex="1">
          <mxGeometry y="182" width="280" height="26" as="geometry" />
        </mxCell>
        <mxCell id="Oq5GghOHbWDhTfEL8BB2-66" value="- Camera _camera;" style="text;align=left;verticalAlign=top;spacingLeft=4;spacingRight=4;overflow=hidden;rotatable=0;points=[[0,0.5],[1,0.5]];portConstraint=eastwest;rounded=0;shadow=0;html=0;" parent="Oq5GghOHbWDhTfEL8BB2-58" vertex="1">
          <mxGeometry y="208" width="280" height="26" as="geometry" />
        </mxCell>
        <mxCell id="Oq5GghOHbWDhTfEL8BB2-72" value="" style="line;html=1;strokeWidth=1;align=left;verticalAlign=middle;spacingTop=-1;spacingLeft=3;spacingRight=3;rotatable=0;labelPosition=right;points=[];portConstraint=eastwest;" parent="Oq5GghOHbWDhTfEL8BB2-58" vertex="1">
          <mxGeometry y="234" width="280" height="8" as="geometry" />
        </mxCell>
        <mxCell id="Oq5GghOHbWDhTfEL8BB2-73" value="- void Start()" style="text;align=left;verticalAlign=top;spacingLeft=4;spacingRight=4;overflow=hidden;rotatable=0;points=[[0,0.5],[1,0.5]];portConstraint=eastwest;rounded=0;shadow=0;html=0;" parent="Oq5GghOHbWDhTfEL8BB2-58" vertex="1">
          <mxGeometry y="242" width="280" height="26" as="geometry" />
        </mxCell>
        <mxCell id="Oq5GghOHbWDhTfEL8BB2-81" value="- void Update()" style="text;align=left;verticalAlign=top;spacingLeft=4;spacingRight=4;overflow=hidden;rotatable=0;points=[[0,0.5],[1,0.5]];portConstraint=eastwest;rounded=0;shadow=0;html=0;" parent="Oq5GghOHbWDhTfEL8BB2-58" vertex="1">
          <mxGeometry y="268" width="280" height="26" as="geometry" />
        </mxCell>
        <mxCell id="Oq5GghOHbWDhTfEL8BB2-92" value="" style="line;html=1;strokeWidth=1;align=left;verticalAlign=middle;spacingTop=-1;spacingLeft=3;spacingRight=3;rotatable=0;labelPosition=right;points=[];portConstraint=eastwest;" parent="Oq5GghOHbWDhTfEL8BB2-58" vertex="1">
          <mxGeometry y="294" width="280" height="8" as="geometry" />
        </mxCell>
        <mxCell id="Oq5GghOHbWDhTfEL8BB2-74" value="+ void OnInteractInput(InputAction.CallbackContext context)" style="text;align=left;verticalAlign=top;spacingLeft=4;spacingRight=4;overflow=hidden;rotatable=0;points=[[0,0.5],[1,0.5]];portConstraint=eastwest;rounded=0;shadow=0;html=0;" parent="Oq5GghOHbWDhTfEL8BB2-58" vertex="1">
          <mxGeometry y="302" width="280" height="26" as="geometry" />
        </mxCell>
        <mxCell id="Oq5GghOHbWDhTfEL8BB2-82" value="- void SetPromptText()" style="text;align=left;verticalAlign=top;spacingLeft=4;spacingRight=4;overflow=hidden;rotatable=0;points=[[0,0.5],[1,0.5]];portConstraint=eastwest;rounded=0;shadow=0;html=0;" parent="Oq5GghOHbWDhTfEL8BB2-58" vertex="1">
          <mxGeometry y="328" width="280" height="26" as="geometry" />
        </mxCell>
        <mxCell id="Oq5GghOHbWDhTfEL8BB2-93" value="FootSteps" style="swimlane;fontStyle=2;align=center;verticalAlign=top;childLayout=stackLayout;horizontal=1;startSize=26;horizontalStack=0;resizeParent=1;resizeLast=0;collapsible=1;marginBottom=0;rounded=0;shadow=0;strokeWidth=1;" parent="WIyWlLk6GJQsqaUBKTNV-1" vertex="1">
          <mxGeometry x="1440" y="280" width="280" height="280" as="geometry">
            <mxRectangle x="230" y="140" width="160" height="26" as="alternateBounds" />
          </mxGeometry>
        </mxCell>
        <mxCell id="Oq5GghOHbWDhTfEL8BB2-94" value="+ AudioClip[] footstepClips;" style="text;align=left;verticalAlign=top;spacingLeft=4;spacingRight=4;overflow=hidden;rotatable=0;points=[[0,0.5],[1,0.5]];portConstraint=eastwest;" parent="Oq5GghOHbWDhTfEL8BB2-93" vertex="1">
          <mxGeometry y="26" width="280" height="26" as="geometry" />
        </mxCell>
        <mxCell id="Oq5GghOHbWDhTfEL8BB2-95" value="- AudioSource audioSource;" style="text;align=left;verticalAlign=top;spacingLeft=4;spacingRight=4;overflow=hidden;rotatable=0;points=[[0,0.5],[1,0.5]];portConstraint=eastwest;rounded=0;shadow=0;html=0;" parent="Oq5GghOHbWDhTfEL8BB2-93" vertex="1">
          <mxGeometry y="52" width="280" height="26" as="geometry" />
        </mxCell>
        <mxCell id="Oq5GghOHbWDhTfEL8BB2-96" value="- Rigidbody _rigidbody;" style="text;align=left;verticalAlign=top;spacingLeft=4;spacingRight=4;overflow=hidden;rotatable=0;points=[[0,0.5],[1,0.5]];portConstraint=eastwest;rounded=0;shadow=0;html=0;" parent="Oq5GghOHbWDhTfEL8BB2-93" vertex="1">
          <mxGeometry y="78" width="280" height="26" as="geometry" />
        </mxCell>
        <mxCell id="Oq5GghOHbWDhTfEL8BB2-97" value="+ float footsteipThreshold;" style="text;align=left;verticalAlign=top;spacingLeft=4;spacingRight=4;overflow=hidden;rotatable=0;points=[[0,0.5],[1,0.5]];portConstraint=eastwest;rounded=0;shadow=0;html=0;" parent="Oq5GghOHbWDhTfEL8BB2-93" vertex="1">
          <mxGeometry y="104" width="280" height="26" as="geometry" />
        </mxCell>
        <mxCell id="Oq5GghOHbWDhTfEL8BB2-98" value="+ float footstepRate;" style="text;align=left;verticalAlign=top;spacingLeft=4;spacingRight=4;overflow=hidden;rotatable=0;points=[[0,0.5],[1,0.5]];portConstraint=eastwest;rounded=0;shadow=0;html=0;" parent="Oq5GghOHbWDhTfEL8BB2-93" vertex="1">
          <mxGeometry y="130" width="280" height="26" as="geometry" />
        </mxCell>
        <mxCell id="Oq5GghOHbWDhTfEL8BB2-99" value="- float footstepTime;" style="text;align=left;verticalAlign=top;spacingLeft=4;spacingRight=4;overflow=hidden;rotatable=0;points=[[0,0.5],[1,0.5]];portConstraint=eastwest;rounded=0;shadow=0;html=0;" parent="Oq5GghOHbWDhTfEL8BB2-93" vertex="1">
          <mxGeometry y="156" width="280" height="26" as="geometry" />
        </mxCell>
        <mxCell id="Oq5GghOHbWDhTfEL8BB2-102" value="" style="line;html=1;strokeWidth=1;align=left;verticalAlign=middle;spacingTop=-1;spacingLeft=3;spacingRight=3;rotatable=0;labelPosition=right;points=[];portConstraint=eastwest;" parent="Oq5GghOHbWDhTfEL8BB2-93" vertex="1">
          <mxGeometry y="182" width="280" height="8" as="geometry" />
        </mxCell>
        <mxCell id="Oq5GghOHbWDhTfEL8BB2-103" value="- void Awake()" style="text;align=left;verticalAlign=top;spacingLeft=4;spacingRight=4;overflow=hidden;rotatable=0;points=[[0,0.5],[1,0.5]];portConstraint=eastwest;rounded=0;shadow=0;html=0;" parent="Oq5GghOHbWDhTfEL8BB2-93" vertex="1">
          <mxGeometry y="190" width="280" height="26" as="geometry" />
        </mxCell>
        <mxCell id="Oq5GghOHbWDhTfEL8BB2-104" value="- void Update()" style="text;align=left;verticalAlign=top;spacingLeft=4;spacingRight=4;overflow=hidden;rotatable=0;points=[[0,0.5],[1,0.5]];portConstraint=eastwest;rounded=0;shadow=0;html=0;" parent="Oq5GghOHbWDhTfEL8BB2-93" vertex="1">
          <mxGeometry y="216" width="280" height="26" as="geometry" />
        </mxCell>
        <mxCell id="Oq5GghOHbWDhTfEL8BB2-105" value="" style="line;html=1;strokeWidth=1;align=left;verticalAlign=middle;spacingTop=-1;spacingLeft=3;spacingRight=3;rotatable=0;labelPosition=right;points=[];portConstraint=eastwest;" parent="Oq5GghOHbWDhTfEL8BB2-93" vertex="1">
          <mxGeometry y="242" width="280" height="8" as="geometry" />
        </mxCell>
        <mxCell id="Oq5GghOHbWDhTfEL8BB2-119" style="edgeStyle=orthogonalEdgeStyle;shape=connector;curved=0;rounded=0;orthogonalLoop=1;jettySize=auto;html=1;entryX=0.489;entryY=0.979;entryDx=0;entryDy=0;entryPerimeter=0;shadow=0;strokeColor=default;strokeWidth=1;align=center;verticalAlign=middle;fontFamily=Helvetica;fontSize=11;fontColor=default;labelBackgroundColor=default;elbow=vertical;endArrow=block;endFill=0;endSize=10;" parent="WIyWlLk6GJQsqaUBKTNV-1" source="Oq5GghOHbWDhTfEL8BB2-9" target="Oq5GghOHbWDhTfEL8BB2-18" edge="1">
          <mxGeometry relative="1" as="geometry" />
        </mxCell>
        <mxCell id="Oq5GghOHbWDhTfEL8BB2-120" value="Equipment" style="swimlane;fontStyle=2;align=center;verticalAlign=top;childLayout=stackLayout;horizontal=1;startSize=26;horizontalStack=0;resizeParent=1;resizeLast=0;collapsible=1;marginBottom=0;rounded=0;shadow=0;strokeWidth=1;" parent="WIyWlLk6GJQsqaUBKTNV-1" vertex="1">
          <mxGeometry x="720" y="1080" width="280" height="250" as="geometry">
            <mxRectangle x="230" y="140" width="160" height="26" as="alternateBounds" />
          </mxGeometry>
        </mxCell>
        <mxCell id="Oq5GghOHbWDhTfEL8BB2-121" value="+ Equip curEquip;" style="text;align=left;verticalAlign=top;spacingLeft=4;spacingRight=4;overflow=hidden;rotatable=0;points=[[0,0.5],[1,0.5]];portConstraint=eastwest;" parent="Oq5GghOHbWDhTfEL8BB2-120" vertex="1">
          <mxGeometry y="26" width="280" height="26" as="geometry" />
        </mxCell>
        <mxCell id="Oq5GghOHbWDhTfEL8BB2-122" value="+ Transform equipParent;" style="text;align=left;verticalAlign=top;spacingLeft=4;spacingRight=4;overflow=hidden;rotatable=0;points=[[0,0.5],[1,0.5]];portConstraint=eastwest;rounded=0;shadow=0;html=0;" parent="Oq5GghOHbWDhTfEL8BB2-120" vertex="1">
          <mxGeometry y="52" width="280" height="26" as="geometry" />
        </mxCell>
        <mxCell id="Oq5GghOHbWDhTfEL8BB2-123" value="- PlayerController controller;" style="text;align=left;verticalAlign=top;spacingLeft=4;spacingRight=4;overflow=hidden;rotatable=0;points=[[0,0.5],[1,0.5]];portConstraint=eastwest;rounded=0;shadow=0;html=0;" parent="Oq5GghOHbWDhTfEL8BB2-120" vertex="1">
          <mxGeometry y="78" width="280" height="26" as="geometry" />
        </mxCell>
        <mxCell id="Oq5GghOHbWDhTfEL8BB2-124" value="- PlayerCondition condition;" style="text;align=left;verticalAlign=top;spacingLeft=4;spacingRight=4;overflow=hidden;rotatable=0;points=[[0,0.5],[1,0.5]];portConstraint=eastwest;rounded=0;shadow=0;html=0;" parent="Oq5GghOHbWDhTfEL8BB2-120" vertex="1">
          <mxGeometry y="104" width="280" height="26" as="geometry" />
        </mxCell>
        <mxCell id="Oq5GghOHbWDhTfEL8BB2-129" value="" style="line;html=1;strokeWidth=1;align=left;verticalAlign=middle;spacingTop=-1;spacingLeft=3;spacingRight=3;rotatable=0;labelPosition=right;points=[];portConstraint=eastwest;" parent="Oq5GghOHbWDhTfEL8BB2-120" vertex="1">
          <mxGeometry y="130" width="280" height="8" as="geometry" />
        </mxCell>
        <mxCell id="Oq5GghOHbWDhTfEL8BB2-130" value="- void Start()" style="text;align=left;verticalAlign=top;spacingLeft=4;spacingRight=4;overflow=hidden;rotatable=0;points=[[0,0.5],[1,0.5]];portConstraint=eastwest;rounded=0;shadow=0;html=0;" parent="Oq5GghOHbWDhTfEL8BB2-120" vertex="1">
          <mxGeometry y="138" width="280" height="26" as="geometry" />
        </mxCell>
        <mxCell id="Oq5GghOHbWDhTfEL8BB2-132" value="" style="line;html=1;strokeWidth=1;align=left;verticalAlign=middle;spacingTop=-1;spacingLeft=3;spacingRight=3;rotatable=0;labelPosition=right;points=[];portConstraint=eastwest;" parent="Oq5GghOHbWDhTfEL8BB2-120" vertex="1">
          <mxGeometry y="164" width="280" height="8" as="geometry" />
        </mxCell>
        <mxCell id="Oq5GghOHbWDhTfEL8BB2-131" value="+ void EquipNew(ItemData data)" style="text;align=left;verticalAlign=top;spacingLeft=4;spacingRight=4;overflow=hidden;rotatable=0;points=[[0,0.5],[1,0.5]];portConstraint=eastwest;rounded=0;shadow=0;html=0;" parent="Oq5GghOHbWDhTfEL8BB2-120" vertex="1">
          <mxGeometry y="172" width="280" height="26" as="geometry" />
        </mxCell>
        <mxCell id="Oq5GghOHbWDhTfEL8BB2-133" value="+ void UnEquip()" style="text;align=left;verticalAlign=top;spacingLeft=4;spacingRight=4;overflow=hidden;rotatable=0;points=[[0,0.5],[1,0.5]];portConstraint=eastwest;rounded=0;shadow=0;html=0;" parent="Oq5GghOHbWDhTfEL8BB2-120" vertex="1">
          <mxGeometry y="198" width="280" height="26" as="geometry" />
        </mxCell>
        <mxCell id="Oq5GghOHbWDhTfEL8BB2-134" value="+ void OnAttackInput(InputAction.CallbackContext context)" style="text;align=left;verticalAlign=top;spacingLeft=4;spacingRight=4;overflow=hidden;rotatable=0;points=[[0,0.5],[1,0.5]];portConstraint=eastwest;rounded=0;shadow=0;html=0;" parent="Oq5GghOHbWDhTfEL8BB2-120" vertex="1">
          <mxGeometry y="224" width="280" height="26" as="geometry" />
        </mxCell>
        <mxCell id="Oq5GghOHbWDhTfEL8BB2-135" value="CharacterManager" style="swimlane;fontStyle=2;align=center;verticalAlign=top;childLayout=stackLayout;horizontal=1;startSize=26;horizontalStack=0;resizeParent=1;resizeLast=0;collapsible=1;marginBottom=0;rounded=0;shadow=0;strokeWidth=1;" parent="WIyWlLk6GJQsqaUBKTNV-1" vertex="1">
          <mxGeometry x="360" y="1080" width="280" height="150" as="geometry">
            <mxRectangle x="230" y="140" width="160" height="26" as="alternateBounds" />
          </mxGeometry>
        </mxCell>
        <mxCell id="Oq5GghOHbWDhTfEL8BB2-136" value="+ static CharacterManager Instance" style="text;align=left;verticalAlign=top;spacingLeft=4;spacingRight=4;overflow=hidden;rotatable=0;points=[[0,0.5],[1,0.5]];portConstraint=eastwest;" parent="Oq5GghOHbWDhTfEL8BB2-135" vertex="1">
          <mxGeometry y="26" width="280" height="26" as="geometry" />
        </mxCell>
        <mxCell id="Oq5GghOHbWDhTfEL8BB2-137" value="+ Player Player" style="text;align=left;verticalAlign=top;spacingLeft=4;spacingRight=4;overflow=hidden;rotatable=0;points=[[0,0.5],[1,0.5]];portConstraint=eastwest;rounded=0;shadow=0;html=0;" parent="Oq5GghOHbWDhTfEL8BB2-135" vertex="1">
          <mxGeometry y="52" width="280" height="26" as="geometry" />
        </mxCell>
        <mxCell id="Oq5GghOHbWDhTfEL8BB2-140" value="" style="line;html=1;strokeWidth=1;align=left;verticalAlign=middle;spacingTop=-1;spacingLeft=3;spacingRight=3;rotatable=0;labelPosition=right;points=[];portConstraint=eastwest;" parent="Oq5GghOHbWDhTfEL8BB2-135" vertex="1">
          <mxGeometry y="78" width="280" height="8" as="geometry" />
        </mxCell>
        <mxCell id="Oq5GghOHbWDhTfEL8BB2-141" value="- void Awake()" style="text;align=left;verticalAlign=top;spacingLeft=4;spacingRight=4;overflow=hidden;rotatable=0;points=[[0,0.5],[1,0.5]];portConstraint=eastwest;rounded=0;shadow=0;html=0;" parent="Oq5GghOHbWDhTfEL8BB2-135" vertex="1">
          <mxGeometry y="86" width="280" height="26" as="geometry" />
        </mxCell>
        <mxCell id="Oq5GghOHbWDhTfEL8BB2-142" value="" style="line;html=1;strokeWidth=1;align=left;verticalAlign=middle;spacingTop=-1;spacingLeft=3;spacingRight=3;rotatable=0;labelPosition=right;points=[];portConstraint=eastwest;" parent="Oq5GghOHbWDhTfEL8BB2-135" vertex="1">
          <mxGeometry y="112" width="280" height="8" as="geometry" />
        </mxCell>
        <mxCell id="Oq5GghOHbWDhTfEL8BB2-147" style="edgeStyle=orthogonalEdgeStyle;shape=connector;curved=0;rounded=0;orthogonalLoop=1;jettySize=auto;html=1;exitX=0;exitY=0.5;exitDx=0;exitDy=0;shadow=0;strokeColor=default;strokeWidth=1;align=center;verticalAlign=middle;fontFamily=Helvetica;fontSize=11;fontColor=default;labelBackgroundColor=default;elbow=vertical;endArrow=open;endFill=0;endSize=10;dashed=1;" parent="WIyWlLk6GJQsqaUBKTNV-1" source="Oq5GghOHbWDhTfEL8BB2-137" target="Oq5GghOHbWDhTfEL8BB2-0" edge="1">
          <mxGeometry relative="1" as="geometry" />
        </mxCell>
        <mxCell id="Oq5GghOHbWDhTfEL8BB2-149" style="edgeStyle=orthogonalEdgeStyle;shape=connector;curved=0;rounded=0;orthogonalLoop=1;jettySize=auto;html=1;shadow=0;strokeColor=default;strokeWidth=1;align=center;verticalAlign=middle;fontFamily=Helvetica;fontSize=11;fontColor=default;labelBackgroundColor=default;elbow=vertical;endArrow=open;endFill=0;endSize=10;dashed=1;" parent="WIyWlLk6GJQsqaUBKTNV-1" source="Oq5GghOHbWDhTfEL8BB2-124" target="Oq5GghOHbWDhTfEL8BB2-28" edge="1">
          <mxGeometry relative="1" as="geometry">
            <Array as="points">
              <mxPoint x="700" y="1197" />
              <mxPoint x="700" y="1040" />
              <mxPoint x="860" y="1040" />
            </Array>
          </mxGeometry>
        </mxCell>
        <mxCell id="Oq5GghOHbWDhTfEL8BB2-150" value="Condition" style="swimlane;fontStyle=2;align=center;verticalAlign=top;childLayout=stackLayout;horizontal=1;startSize=26;horizontalStack=0;resizeParent=1;resizeLast=0;collapsible=1;marginBottom=0;rounded=0;shadow=0;strokeWidth=1;" parent="WIyWlLk6GJQsqaUBKTNV-1" vertex="1">
          <mxGeometry x="80" y="1480" width="280" height="302" as="geometry">
            <mxRectangle x="230" y="140" width="160" height="26" as="alternateBounds" />
          </mxGeometry>
        </mxCell>
        <mxCell id="Oq5GghOHbWDhTfEL8BB2-151" value="+ float curValue;" style="text;align=left;verticalAlign=top;spacingLeft=4;spacingRight=4;overflow=hidden;rotatable=0;points=[[0,0.5],[1,0.5]];portConstraint=eastwest;" parent="Oq5GghOHbWDhTfEL8BB2-150" vertex="1">
          <mxGeometry y="26" width="280" height="26" as="geometry" />
        </mxCell>
        <mxCell id="Oq5GghOHbWDhTfEL8BB2-152" value="+ float startValue;" style="text;align=left;verticalAlign=top;spacingLeft=4;spacingRight=4;overflow=hidden;rotatable=0;points=[[0,0.5],[1,0.5]];portConstraint=eastwest;rounded=0;shadow=0;html=0;" parent="Oq5GghOHbWDhTfEL8BB2-150" vertex="1">
          <mxGeometry y="52" width="280" height="26" as="geometry" />
        </mxCell>
        <mxCell id="Oq5GghOHbWDhTfEL8BB2-153" value="+ float maxValue;" style="text;align=left;verticalAlign=top;spacingLeft=4;spacingRight=4;overflow=hidden;rotatable=0;points=[[0,0.5],[1,0.5]];portConstraint=eastwest;rounded=0;shadow=0;html=0;" parent="Oq5GghOHbWDhTfEL8BB2-150" vertex="1">
          <mxGeometry y="78" width="280" height="26" as="geometry" />
        </mxCell>
        <mxCell id="Oq5GghOHbWDhTfEL8BB2-154" value="+ float passiveValue;" style="text;align=left;verticalAlign=top;spacingLeft=4;spacingRight=4;overflow=hidden;rotatable=0;points=[[0,0.5],[1,0.5]];portConstraint=eastwest;rounded=0;shadow=0;html=0;" parent="Oq5GghOHbWDhTfEL8BB2-150" vertex="1">
          <mxGeometry y="104" width="280" height="26" as="geometry" />
        </mxCell>
        <mxCell id="Oq5GghOHbWDhTfEL8BB2-155" value="+ Image uiBar;" style="text;align=left;verticalAlign=top;spacingLeft=4;spacingRight=4;overflow=hidden;rotatable=0;points=[[0,0.5],[1,0.5]];portConstraint=eastwest;rounded=0;shadow=0;html=0;" parent="Oq5GghOHbWDhTfEL8BB2-150" vertex="1">
          <mxGeometry y="130" width="280" height="26" as="geometry" />
        </mxCell>
        <mxCell id="Oq5GghOHbWDhTfEL8BB2-157" value="" style="line;html=1;strokeWidth=1;align=left;verticalAlign=middle;spacingTop=-1;spacingLeft=3;spacingRight=3;rotatable=0;labelPosition=right;points=[];portConstraint=eastwest;" parent="Oq5GghOHbWDhTfEL8BB2-150" vertex="1">
          <mxGeometry y="156" width="280" height="8" as="geometry" />
        </mxCell>
        <mxCell id="Oq5GghOHbWDhTfEL8BB2-158" value="- void Start()" style="text;align=left;verticalAlign=top;spacingLeft=4;spacingRight=4;overflow=hidden;rotatable=0;points=[[0,0.5],[1,0.5]];portConstraint=eastwest;rounded=0;shadow=0;html=0;" parent="Oq5GghOHbWDhTfEL8BB2-150" vertex="1">
          <mxGeometry y="164" width="280" height="26" as="geometry" />
        </mxCell>
        <mxCell id="Oq5GghOHbWDhTfEL8BB2-160" value="- void Update()" style="text;align=left;verticalAlign=top;spacingLeft=4;spacingRight=4;overflow=hidden;rotatable=0;points=[[0,0.5],[1,0.5]];portConstraint=eastwest;rounded=0;shadow=0;html=0;" parent="Oq5GghOHbWDhTfEL8BB2-150" vertex="1">
          <mxGeometry y="190" width="280" height="26" as="geometry" />
        </mxCell>
        <mxCell id="Oq5GghOHbWDhTfEL8BB2-159" value="" style="line;html=1;strokeWidth=1;align=left;verticalAlign=middle;spacingTop=-1;spacingLeft=3;spacingRight=3;rotatable=0;labelPosition=right;points=[];portConstraint=eastwest;" parent="Oq5GghOHbWDhTfEL8BB2-150" vertex="1">
          <mxGeometry y="216" width="280" height="8" as="geometry" />
        </mxCell>
        <mxCell id="Oq5GghOHbWDhTfEL8BB2-161" value="- float GetPercentage()" style="text;align=left;verticalAlign=top;spacingLeft=4;spacingRight=4;overflow=hidden;rotatable=0;points=[[0,0.5],[1,0.5]];portConstraint=eastwest;rounded=0;shadow=0;html=0;" parent="Oq5GghOHbWDhTfEL8BB2-150" vertex="1">
          <mxGeometry y="224" width="280" height="26" as="geometry" />
        </mxCell>
        <mxCell id="Oq5GghOHbWDhTfEL8BB2-162" value="+ void Add(float value)" style="text;align=left;verticalAlign=top;spacingLeft=4;spacingRight=4;overflow=hidden;rotatable=0;points=[[0,0.5],[1,0.5]];portConstraint=eastwest;rounded=0;shadow=0;html=0;" parent="Oq5GghOHbWDhTfEL8BB2-150" vertex="1">
          <mxGeometry y="250" width="280" height="26" as="geometry" />
        </mxCell>
        <mxCell id="Oq5GghOHbWDhTfEL8BB2-163" value="+ void Subtract(float value)" style="text;align=left;verticalAlign=top;spacingLeft=4;spacingRight=4;overflow=hidden;rotatable=0;points=[[0,0.5],[1,0.5]];portConstraint=eastwest;rounded=0;shadow=0;html=0;" parent="Oq5GghOHbWDhTfEL8BB2-150" vertex="1">
          <mxGeometry y="276" width="280" height="26" as="geometry" />
        </mxCell>
        <mxCell id="Oq5GghOHbWDhTfEL8BB2-148" style="edgeStyle=orthogonalEdgeStyle;shape=connector;curved=0;rounded=0;orthogonalLoop=1;jettySize=auto;html=1;shadow=0;strokeColor=default;strokeWidth=1;align=center;verticalAlign=middle;fontFamily=Helvetica;fontSize=11;fontColor=default;labelBackgroundColor=default;elbow=vertical;endArrow=open;endFill=0;endSize=10;dashed=1;jumpStyle=arc;jumpSize=20;" parent="WIyWlLk6GJQsqaUBKTNV-1" source="Oq5GghOHbWDhTfEL8BB2-123" target="Oq5GghOHbWDhTfEL8BB2-9" edge="1">
          <mxGeometry relative="1" as="geometry">
            <Array as="points">
              <mxPoint x="670" y="1171" />
              <mxPoint x="670" y="1040" />
              <mxPoint x="500" y="1040" />
            </Array>
          </mxGeometry>
        </mxCell>
        <mxCell id="Oq5GghOHbWDhTfEL8BB2-169" value="DamageIndicator" style="swimlane;fontStyle=2;align=center;verticalAlign=top;childLayout=stackLayout;horizontal=1;startSize=26;horizontalStack=0;resizeParent=1;resizeLast=0;collapsible=1;marginBottom=0;rounded=0;shadow=0;strokeWidth=1;" parent="WIyWlLk6GJQsqaUBKTNV-1" vertex="1">
          <mxGeometry x="440" y="1480" width="280" height="200" as="geometry">
            <mxRectangle x="230" y="140" width="160" height="26" as="alternateBounds" />
          </mxGeometry>
        </mxCell>
        <mxCell id="Oq5GghOHbWDhTfEL8BB2-170" value="+ Image image;" style="text;align=left;verticalAlign=top;spacingLeft=4;spacingRight=4;overflow=hidden;rotatable=0;points=[[0,0.5],[1,0.5]];portConstraint=eastwest;" parent="Oq5GghOHbWDhTfEL8BB2-169" vertex="1">
          <mxGeometry y="26" width="280" height="26" as="geometry" />
        </mxCell>
        <mxCell id="Oq5GghOHbWDhTfEL8BB2-171" value="+ float flashSpeed;" style="text;align=left;verticalAlign=top;spacingLeft=4;spacingRight=4;overflow=hidden;rotatable=0;points=[[0,0.5],[1,0.5]];portConstraint=eastwest;rounded=0;shadow=0;html=0;" parent="Oq5GghOHbWDhTfEL8BB2-169" vertex="1">
          <mxGeometry y="52" width="280" height="26" as="geometry" />
        </mxCell>
        <mxCell id="Oq5GghOHbWDhTfEL8BB2-172" value="- Coroutine coroutine;" style="text;align=left;verticalAlign=top;spacingLeft=4;spacingRight=4;overflow=hidden;rotatable=0;points=[[0,0.5],[1,0.5]];portConstraint=eastwest;rounded=0;shadow=0;html=0;" parent="Oq5GghOHbWDhTfEL8BB2-169" vertex="1">
          <mxGeometry y="78" width="280" height="26" as="geometry" />
        </mxCell>
        <mxCell id="Oq5GghOHbWDhTfEL8BB2-175" value="" style="line;html=1;strokeWidth=1;align=left;verticalAlign=middle;spacingTop=-1;spacingLeft=3;spacingRight=3;rotatable=0;labelPosition=right;points=[];portConstraint=eastwest;" parent="Oq5GghOHbWDhTfEL8BB2-169" vertex="1">
          <mxGeometry y="104" width="280" height="8" as="geometry" />
        </mxCell>
        <mxCell id="Oq5GghOHbWDhTfEL8BB2-176" value="- void Start()" style="text;align=left;verticalAlign=top;spacingLeft=4;spacingRight=4;overflow=hidden;rotatable=0;points=[[0,0.5],[1,0.5]];portConstraint=eastwest;rounded=0;shadow=0;html=0;" parent="Oq5GghOHbWDhTfEL8BB2-169" vertex="1">
          <mxGeometry y="112" width="280" height="26" as="geometry" />
        </mxCell>
        <mxCell id="Oq5GghOHbWDhTfEL8BB2-178" value="" style="line;html=1;strokeWidth=1;align=left;verticalAlign=middle;spacingTop=-1;spacingLeft=3;spacingRight=3;rotatable=0;labelPosition=right;points=[];portConstraint=eastwest;" parent="Oq5GghOHbWDhTfEL8BB2-169" vertex="1">
          <mxGeometry y="138" width="280" height="8" as="geometry" />
        </mxCell>
        <mxCell id="Oq5GghOHbWDhTfEL8BB2-179" value="+ void Flash()" style="text;align=left;verticalAlign=top;spacingLeft=4;spacingRight=4;overflow=hidden;rotatable=0;points=[[0,0.5],[1,0.5]];portConstraint=eastwest;rounded=0;shadow=0;html=0;" parent="Oq5GghOHbWDhTfEL8BB2-169" vertex="1">
          <mxGeometry y="146" width="280" height="26" as="geometry" />
        </mxCell>
        <mxCell id="Oq5GghOHbWDhTfEL8BB2-180" value="- IEnumerator FadeAway()" style="text;align=left;verticalAlign=top;spacingLeft=4;spacingRight=4;overflow=hidden;rotatable=0;points=[[0,0.5],[1,0.5]];portConstraint=eastwest;rounded=0;shadow=0;html=0;" parent="Oq5GghOHbWDhTfEL8BB2-169" vertex="1">
          <mxGeometry y="172" width="280" height="26" as="geometry" />
        </mxCell>
        <mxCell id="Oq5GghOHbWDhTfEL8BB2-183" style="edgeStyle=orthogonalEdgeStyle;shape=connector;curved=0;rounded=0;orthogonalLoop=1;jettySize=auto;html=1;shadow=0;strokeColor=default;strokeWidth=1;align=center;verticalAlign=middle;fontFamily=Helvetica;fontSize=11;fontColor=default;labelBackgroundColor=default;elbow=vertical;endArrow=open;endFill=0;endSize=10;dashed=1;jumpStyle=arc;jumpSize=20;exitX=1;exitY=0.5;exitDx=0;exitDy=0;" parent="WIyWlLk6GJQsqaUBKTNV-1" source="Oq5GghOHbWDhTfEL8BB2-2" edge="1">
          <mxGeometry relative="1" as="geometry">
            <mxPoint x="280" y="179.99857142857135" as="sourcePoint" />
            <mxPoint x="360" y="291.9985714285715" as="targetPoint" />
            <Array as="points">
              <mxPoint x="310" y="345" />
              <mxPoint x="310" y="292" />
            </Array>
          </mxGeometry>
        </mxCell>
        <mxCell id="Oq5GghOHbWDhTfEL8BB2-185" style="edgeStyle=orthogonalEdgeStyle;shape=connector;curved=0;rounded=0;orthogonalLoop=1;jettySize=auto;html=1;entryX=0.275;entryY=-0.003;entryDx=0;entryDy=0;entryPerimeter=0;shadow=0;strokeColor=default;strokeWidth=1;align=center;verticalAlign=middle;fontFamily=Helvetica;fontSize=11;fontColor=default;labelBackgroundColor=default;elbow=vertical;endArrow=open;endFill=0;endSize=10;dashed=1;jumpStyle=arc;jumpSize=20;" parent="WIyWlLk6GJQsqaUBKTNV-1" source="Oq5GghOHbWDhTfEL8BB2-1" target="Oq5GghOHbWDhTfEL8BB2-28" edge="1">
          <mxGeometry relative="1" as="geometry">
            <Array as="points">
              <mxPoint x="300" y="319" />
              <mxPoint x="300" y="240" />
              <mxPoint x="797" y="240" />
            </Array>
          </mxGeometry>
        </mxCell>
        <mxCell id="Oq5GghOHbWDhTfEL8BB2-187" style="edgeStyle=orthogonalEdgeStyle;shape=connector;curved=0;rounded=0;orthogonalLoop=1;jettySize=auto;html=1;entryX=0;entryY=0.5;entryDx=0;entryDy=0;shadow=0;strokeColor=default;strokeWidth=1;align=center;verticalAlign=middle;fontFamily=Helvetica;fontSize=11;fontColor=default;labelBackgroundColor=default;elbow=vertical;endArrow=open;endFill=0;endSize=10;dashed=1;jumpStyle=arc;jumpSize=20;" parent="WIyWlLk6GJQsqaUBKTNV-1" source="Oq5GghOHbWDhTfEL8BB2-176" target="Oq5GghOHbWDhTfEL8BB2-15" edge="1">
          <mxGeometry relative="1" as="geometry">
            <Array as="points">
              <mxPoint x="400" y="1605" />
              <mxPoint x="400" y="1400" />
              <mxPoint x="340" y="1400" />
              <mxPoint x="340" y="449" />
            </Array>
          </mxGeometry>
        </mxCell>
        <mxCell id="Oq5GghOHbWDhTfEL8BB2-188" value="ItemSlot" style="swimlane;fontStyle=2;align=center;verticalAlign=top;childLayout=stackLayout;horizontal=1;startSize=26;horizontalStack=0;resizeParent=1;resizeLast=0;collapsible=1;marginBottom=0;rounded=0;shadow=0;strokeWidth=1;" parent="WIyWlLk6GJQsqaUBKTNV-1" vertex="1">
          <mxGeometry x="440" y="1760" width="280" height="406" as="geometry">
            <mxRectangle x="230" y="140" width="160" height="26" as="alternateBounds" />
          </mxGeometry>
        </mxCell>
        <mxCell id="Oq5GghOHbWDhTfEL8BB2-189" value="+ ItemData item;" style="text;align=left;verticalAlign=top;spacingLeft=4;spacingRight=4;overflow=hidden;rotatable=0;points=[[0,0.5],[1,0.5]];portConstraint=eastwest;" parent="Oq5GghOHbWDhTfEL8BB2-188" vertex="1">
          <mxGeometry y="26" width="280" height="26" as="geometry" />
        </mxCell>
        <mxCell id="Oq5GghOHbWDhTfEL8BB2-190" value="+ Button btn;" style="text;align=left;verticalAlign=top;spacingLeft=4;spacingRight=4;overflow=hidden;rotatable=0;points=[[0,0.5],[1,0.5]];portConstraint=eastwest;rounded=0;shadow=0;html=0;" parent="Oq5GghOHbWDhTfEL8BB2-188" vertex="1">
          <mxGeometry y="52" width="280" height="26" as="geometry" />
        </mxCell>
        <mxCell id="Oq5GghOHbWDhTfEL8BB2-191" value="+ Image icon;" style="text;align=left;verticalAlign=top;spacingLeft=4;spacingRight=4;overflow=hidden;rotatable=0;points=[[0,0.5],[1,0.5]];portConstraint=eastwest;rounded=0;shadow=0;html=0;" parent="Oq5GghOHbWDhTfEL8BB2-188" vertex="1">
          <mxGeometry y="78" width="280" height="26" as="geometry" />
        </mxCell>
        <mxCell id="Oq5GghOHbWDhTfEL8BB2-192" value="+ TextMeshProUGUI quantityText;" style="text;align=left;verticalAlign=top;spacingLeft=4;spacingRight=4;overflow=hidden;rotatable=0;points=[[0,0.5],[1,0.5]];portConstraint=eastwest;rounded=0;shadow=0;html=0;" parent="Oq5GghOHbWDhTfEL8BB2-188" vertex="1">
          <mxGeometry y="104" width="280" height="26" as="geometry" />
        </mxCell>
        <mxCell id="Oq5GghOHbWDhTfEL8BB2-193" value="- Outline outline;" style="text;align=left;verticalAlign=top;spacingLeft=4;spacingRight=4;overflow=hidden;rotatable=0;points=[[0,0.5],[1,0.5]];portConstraint=eastwest;rounded=0;shadow=0;html=0;" parent="Oq5GghOHbWDhTfEL8BB2-188" vertex="1">
          <mxGeometry y="130" width="280" height="26" as="geometry" />
        </mxCell>
        <mxCell id="Oq5GghOHbWDhTfEL8BB2-194" value="+ UIInventory inventory;" style="text;align=left;verticalAlign=top;spacingLeft=4;spacingRight=4;overflow=hidden;rotatable=0;points=[[0,0.5],[1,0.5]];portConstraint=eastwest;rounded=0;shadow=0;html=0;" parent="Oq5GghOHbWDhTfEL8BB2-188" vertex="1">
          <mxGeometry y="156" width="280" height="26" as="geometry" />
        </mxCell>
        <mxCell id="Oq5GghOHbWDhTfEL8BB2-195" value="+ int index;" style="text;align=left;verticalAlign=top;spacingLeft=4;spacingRight=4;overflow=hidden;rotatable=0;points=[[0,0.5],[1,0.5]];portConstraint=eastwest;rounded=0;shadow=0;html=0;" parent="Oq5GghOHbWDhTfEL8BB2-188" vertex="1">
          <mxGeometry y="182" width="280" height="26" as="geometry" />
        </mxCell>
        <mxCell id="Oq5GghOHbWDhTfEL8BB2-196" value="+ bool equipped;" style="text;align=left;verticalAlign=top;spacingLeft=4;spacingRight=4;overflow=hidden;rotatable=0;points=[[0,0.5],[1,0.5]];portConstraint=eastwest;rounded=0;shadow=0;html=0;" parent="Oq5GghOHbWDhTfEL8BB2-188" vertex="1">
          <mxGeometry y="208" width="280" height="26" as="geometry" />
        </mxCell>
        <mxCell id="Oq5GghOHbWDhTfEL8BB2-197" value="+ int quantity;" style="text;align=left;verticalAlign=top;spacingLeft=4;spacingRight=4;overflow=hidden;rotatable=0;points=[[0,0.5],[1,0.5]];portConstraint=eastwest;rounded=0;shadow=0;html=0;" parent="Oq5GghOHbWDhTfEL8BB2-188" vertex="1">
          <mxGeometry y="234" width="280" height="26" as="geometry" />
        </mxCell>
        <mxCell id="Oq5GghOHbWDhTfEL8BB2-202" value="" style="line;html=1;strokeWidth=1;align=left;verticalAlign=middle;spacingTop=-1;spacingLeft=3;spacingRight=3;rotatable=0;labelPosition=right;points=[];portConstraint=eastwest;" parent="Oq5GghOHbWDhTfEL8BB2-188" vertex="1">
          <mxGeometry y="260" width="280" height="8" as="geometry" />
        </mxCell>
        <mxCell id="Oq5GghOHbWDhTfEL8BB2-203" value="- void Awake()" style="text;align=left;verticalAlign=top;spacingLeft=4;spacingRight=4;overflow=hidden;rotatable=0;points=[[0,0.5],[1,0.5]];portConstraint=eastwest;rounded=0;shadow=0;html=0;" parent="Oq5GghOHbWDhTfEL8BB2-188" vertex="1">
          <mxGeometry y="268" width="280" height="26" as="geometry" />
        </mxCell>
        <mxCell id="Oq5GghOHbWDhTfEL8BB2-204" value="- void OnEnable()" style="text;align=left;verticalAlign=top;spacingLeft=4;spacingRight=4;overflow=hidden;rotatable=0;points=[[0,0.5],[1,0.5]];portConstraint=eastwest;rounded=0;shadow=0;html=0;" parent="Oq5GghOHbWDhTfEL8BB2-188" vertex="1">
          <mxGeometry y="294" width="280" height="26" as="geometry" />
        </mxCell>
        <mxCell id="Oq5GghOHbWDhTfEL8BB2-207" value="" style="line;html=1;strokeWidth=1;align=left;verticalAlign=middle;spacingTop=-1;spacingLeft=3;spacingRight=3;rotatable=0;labelPosition=right;points=[];portConstraint=eastwest;" parent="Oq5GghOHbWDhTfEL8BB2-188" vertex="1">
          <mxGeometry y="320" width="280" height="8" as="geometry" />
        </mxCell>
        <mxCell id="Oq5GghOHbWDhTfEL8BB2-208" value="+ void Set()" style="text;align=left;verticalAlign=top;spacingLeft=4;spacingRight=4;overflow=hidden;rotatable=0;points=[[0,0.5],[1,0.5]];portConstraint=eastwest;rounded=0;shadow=0;html=0;" parent="Oq5GghOHbWDhTfEL8BB2-188" vertex="1">
          <mxGeometry y="328" width="280" height="26" as="geometry" />
        </mxCell>
        <mxCell id="Oq5GghOHbWDhTfEL8BB2-209" value="+ void Clear()" style="text;align=left;verticalAlign=top;spacingLeft=4;spacingRight=4;overflow=hidden;rotatable=0;points=[[0,0.5],[1,0.5]];portConstraint=eastwest;rounded=0;shadow=0;html=0;" parent="Oq5GghOHbWDhTfEL8BB2-188" vertex="1">
          <mxGeometry y="354" width="280" height="26" as="geometry" />
        </mxCell>
        <mxCell id="Oq5GghOHbWDhTfEL8BB2-210" value="+ void OnClickBtn()" style="text;align=left;verticalAlign=top;spacingLeft=4;spacingRight=4;overflow=hidden;rotatable=0;points=[[0,0.5],[1,0.5]];portConstraint=eastwest;rounded=0;shadow=0;html=0;" parent="Oq5GghOHbWDhTfEL8BB2-188" vertex="1">
          <mxGeometry y="380" width="280" height="26" as="geometry" />
        </mxCell>
        <mxCell id="Oq5GghOHbWDhTfEL8BB2-216" value="UICondition" style="swimlane;fontStyle=2;align=center;verticalAlign=top;childLayout=stackLayout;horizontal=1;startSize=26;horizontalStack=0;resizeParent=1;resizeLast=0;collapsible=1;marginBottom=0;rounded=0;shadow=0;strokeWidth=1;" parent="WIyWlLk6GJQsqaUBKTNV-1" vertex="1">
          <mxGeometry x="800" y="1480" width="280" height="160" as="geometry">
            <mxRectangle x="230" y="140" width="160" height="26" as="alternateBounds" />
          </mxGeometry>
        </mxCell>
        <mxCell id="Oq5GghOHbWDhTfEL8BB2-217" value="+ Condition health;" style="text;align=left;verticalAlign=top;spacingLeft=4;spacingRight=4;overflow=hidden;rotatable=0;points=[[0,0.5],[1,0.5]];portConstraint=eastwest;" parent="Oq5GghOHbWDhTfEL8BB2-216" vertex="1">
          <mxGeometry y="26" width="280" height="26" as="geometry" />
        </mxCell>
        <mxCell id="Oq5GghOHbWDhTfEL8BB2-218" value="+ Condition hunger;" style="text;align=left;verticalAlign=top;spacingLeft=4;spacingRight=4;overflow=hidden;rotatable=0;points=[[0,0.5],[1,0.5]];portConstraint=eastwest;rounded=0;shadow=0;html=0;" parent="Oq5GghOHbWDhTfEL8BB2-216" vertex="1">
          <mxGeometry y="52" width="280" height="26" as="geometry" />
        </mxCell>
        <mxCell id="Oq5GghOHbWDhTfEL8BB2-219" value="+ Condition stamina;" style="text;align=left;verticalAlign=top;spacingLeft=4;spacingRight=4;overflow=hidden;rotatable=0;points=[[0,0.5],[1,0.5]];portConstraint=eastwest;rounded=0;shadow=0;html=0;" parent="Oq5GghOHbWDhTfEL8BB2-216" vertex="1">
          <mxGeometry y="78" width="280" height="26" as="geometry" />
        </mxCell>
        <mxCell id="Oq5GghOHbWDhTfEL8BB2-220" value="" style="line;html=1;strokeWidth=1;align=left;verticalAlign=middle;spacingTop=-1;spacingLeft=3;spacingRight=3;rotatable=0;labelPosition=right;points=[];portConstraint=eastwest;" parent="Oq5GghOHbWDhTfEL8BB2-216" vertex="1">
          <mxGeometry y="104" width="280" height="8" as="geometry" />
        </mxCell>
        <mxCell id="Oq5GghOHbWDhTfEL8BB2-221" value="- void Start()" style="text;align=left;verticalAlign=top;spacingLeft=4;spacingRight=4;overflow=hidden;rotatable=0;points=[[0,0.5],[1,0.5]];portConstraint=eastwest;rounded=0;shadow=0;html=0;" parent="Oq5GghOHbWDhTfEL8BB2-216" vertex="1">
          <mxGeometry y="112" width="280" height="26" as="geometry" />
        </mxCell>
        <mxCell id="Oq5GghOHbWDhTfEL8BB2-222" value="" style="line;html=1;strokeWidth=1;align=left;verticalAlign=middle;spacingTop=-1;spacingLeft=3;spacingRight=3;rotatable=0;labelPosition=right;points=[];portConstraint=eastwest;" parent="Oq5GghOHbWDhTfEL8BB2-216" vertex="1">
          <mxGeometry y="138" width="280" height="8" as="geometry" />
        </mxCell>
        <mxCell id="Oq5GghOHbWDhTfEL8BB2-226" style="edgeStyle=orthogonalEdgeStyle;shape=connector;curved=0;rounded=0;orthogonalLoop=1;jettySize=auto;html=1;exitX=0;exitY=0.5;exitDx=0;exitDy=0;shadow=0;strokeColor=default;strokeWidth=1;align=center;verticalAlign=middle;fontFamily=Helvetica;fontSize=11;fontColor=default;labelBackgroundColor=default;elbow=vertical;endArrow=open;endFill=0;endSize=10;dashed=1;jumpStyle=arc;jumpSize=20;" parent="WIyWlLk6GJQsqaUBKTNV-1" source="Oq5GghOHbWDhTfEL8BB2-10" target="Oq5GghOHbWDhTfEL8BB2-216" edge="1">
          <mxGeometry relative="1" as="geometry">
            <Array as="points">
              <mxPoint x="320" y="319" />
              <mxPoint x="320" y="1440" />
              <mxPoint x="940" y="1440" />
            </Array>
          </mxGeometry>
        </mxCell>
        <mxCell id="Oq5GghOHbWDhTfEL8BB2-227" value="UIInventory" style="swimlane;fontStyle=2;align=center;verticalAlign=top;childLayout=stackLayout;horizontal=1;startSize=26;horizontalStack=0;resizeParent=1;resizeLast=0;collapsible=1;marginBottom=0;rounded=0;shadow=0;strokeWidth=1;" parent="WIyWlLk6GJQsqaUBKTNV-1" vertex="1">
          <mxGeometry x="1160" y="1480" width="280" height="900" as="geometry">
            <mxRectangle x="230" y="140" width="160" height="26" as="alternateBounds" />
          </mxGeometry>
        </mxCell>
        <mxCell id="Oq5GghOHbWDhTfEL8BB2-228" value="+ ItemSlot[] slots;" style="text;align=left;verticalAlign=top;spacingLeft=4;spacingRight=4;overflow=hidden;rotatable=0;points=[[0,0.5],[1,0.5]];portConstraint=eastwest;" parent="Oq5GghOHbWDhTfEL8BB2-227" vertex="1">
          <mxGeometry y="26" width="280" height="26" as="geometry" />
        </mxCell>
        <mxCell id="Oq5GghOHbWDhTfEL8BB2-229" value="+ GameObject inventoryWnd;" style="text;align=left;verticalAlign=top;spacingLeft=4;spacingRight=4;overflow=hidden;rotatable=0;points=[[0,0.5],[1,0.5]];portConstraint=eastwest;rounded=0;shadow=0;html=0;" parent="Oq5GghOHbWDhTfEL8BB2-227" vertex="1">
          <mxGeometry y="52" width="280" height="26" as="geometry" />
        </mxCell>
        <mxCell id="Oq5GghOHbWDhTfEL8BB2-230" value="+ Transform slotPannel;" style="text;align=left;verticalAlign=top;spacingLeft=4;spacingRight=4;overflow=hidden;rotatable=0;points=[[0,0.5],[1,0.5]];portConstraint=eastwest;rounded=0;shadow=0;html=0;" parent="Oq5GghOHbWDhTfEL8BB2-227" vertex="1">
          <mxGeometry y="78" width="280" height="26" as="geometry" />
        </mxCell>
        <mxCell id="Oq5GghOHbWDhTfEL8BB2-231" value="+ Transform dropPosition;" style="text;align=left;verticalAlign=top;spacingLeft=4;spacingRight=4;overflow=hidden;rotatable=0;points=[[0,0.5],[1,0.5]];portConstraint=eastwest;rounded=0;shadow=0;html=0;" parent="Oq5GghOHbWDhTfEL8BB2-227" vertex="1">
          <mxGeometry y="104" width="280" height="26" as="geometry" />
        </mxCell>
        <mxCell id="Oq5GghOHbWDhTfEL8BB2-232" value="+ TextMeshProUGUI selectedItemName;" style="text;align=left;verticalAlign=top;spacingLeft=4;spacingRight=4;overflow=hidden;rotatable=0;points=[[0,0.5],[1,0.5]];portConstraint=eastwest;rounded=0;shadow=0;html=0;" parent="Oq5GghOHbWDhTfEL8BB2-227" vertex="1">
          <mxGeometry y="130" width="280" height="26" as="geometry" />
        </mxCell>
        <mxCell id="Oq5GghOHbWDhTfEL8BB2-233" value="+ TextMeshProUGUI selectedItemDescription;" style="text;align=left;verticalAlign=top;spacingLeft=4;spacingRight=4;overflow=hidden;rotatable=0;points=[[0,0.5],[1,0.5]];portConstraint=eastwest;rounded=0;shadow=0;html=0;" parent="Oq5GghOHbWDhTfEL8BB2-227" vertex="1">
          <mxGeometry y="156" width="280" height="26" as="geometry" />
        </mxCell>
        <mxCell id="Oq5GghOHbWDhTfEL8BB2-234" value="+ TextMeshProUGUI selectedStatName;" style="text;align=left;verticalAlign=top;spacingLeft=4;spacingRight=4;overflow=hidden;rotatable=0;points=[[0,0.5],[1,0.5]];portConstraint=eastwest;rounded=0;shadow=0;html=0;" parent="Oq5GghOHbWDhTfEL8BB2-227" vertex="1">
          <mxGeometry y="182" width="280" height="26" as="geometry" />
        </mxCell>
        <mxCell id="Oq5GghOHbWDhTfEL8BB2-235" value="+ TextMeshProUGUI selectedStatValue;" style="text;align=left;verticalAlign=top;spacingLeft=4;spacingRight=4;overflow=hidden;rotatable=0;points=[[0,0.5],[1,0.5]];portConstraint=eastwest;rounded=0;shadow=0;html=0;" parent="Oq5GghOHbWDhTfEL8BB2-227" vertex="1">
          <mxGeometry y="208" width="280" height="26" as="geometry" />
        </mxCell>
        <mxCell id="Oq5GghOHbWDhTfEL8BB2-236" value="+ GameObject useBtn;" style="text;align=left;verticalAlign=top;spacingLeft=4;spacingRight=4;overflow=hidden;rotatable=0;points=[[0,0.5],[1,0.5]];portConstraint=eastwest;rounded=0;shadow=0;html=0;" parent="Oq5GghOHbWDhTfEL8BB2-227" vertex="1">
          <mxGeometry y="234" width="280" height="26" as="geometry" />
        </mxCell>
        <mxCell id="Oq5GghOHbWDhTfEL8BB2-237" value="+ GameObject equipBtn;" style="text;align=left;verticalAlign=top;spacingLeft=4;spacingRight=4;overflow=hidden;rotatable=0;points=[[0,0.5],[1,0.5]];portConstraint=eastwest;rounded=0;shadow=0;html=0;" parent="Oq5GghOHbWDhTfEL8BB2-227" vertex="1">
          <mxGeometry y="260" width="280" height="26" as="geometry" />
        </mxCell>
        <mxCell id="Oq5GghOHbWDhTfEL8BB2-238" value="+ GameObject unequipBtn;" style="text;align=left;verticalAlign=top;spacingLeft=4;spacingRight=4;overflow=hidden;rotatable=0;points=[[0,0.5],[1,0.5]];portConstraint=eastwest;rounded=0;shadow=0;html=0;" parent="Oq5GghOHbWDhTfEL8BB2-227" vertex="1">
          <mxGeometry y="286" width="280" height="26" as="geometry" />
        </mxCell>
        <mxCell id="Oq5GghOHbWDhTfEL8BB2-239" value="+ GameObject dropBtn;" style="text;align=left;verticalAlign=top;spacingLeft=4;spacingRight=4;overflow=hidden;rotatable=0;points=[[0,0.5],[1,0.5]];portConstraint=eastwest;rounded=0;shadow=0;html=0;" parent="Oq5GghOHbWDhTfEL8BB2-227" vertex="1">
          <mxGeometry y="312" width="280" height="26" as="geometry" />
        </mxCell>
        <mxCell id="Oq5GghOHbWDhTfEL8BB2-240" value="- PlayerController controller;" style="text;align=left;verticalAlign=top;spacingLeft=4;spacingRight=4;overflow=hidden;rotatable=0;points=[[0,0.5],[1,0.5]];portConstraint=eastwest;rounded=0;shadow=0;html=0;" parent="Oq5GghOHbWDhTfEL8BB2-227" vertex="1">
          <mxGeometry y="338" width="280" height="26" as="geometry" />
        </mxCell>
        <mxCell id="Oq5GghOHbWDhTfEL8BB2-255" value="- PlayerCondition condition;" style="text;align=left;verticalAlign=top;spacingLeft=4;spacingRight=4;overflow=hidden;rotatable=0;points=[[0,0.5],[1,0.5]];portConstraint=eastwest;rounded=0;shadow=0;html=0;" parent="Oq5GghOHbWDhTfEL8BB2-227" vertex="1">
          <mxGeometry y="364" width="280" height="26" as="geometry" />
        </mxCell>
        <mxCell id="Oq5GghOHbWDhTfEL8BB2-258" value="- ItemData selectedItem;" style="text;align=left;verticalAlign=top;spacingLeft=4;spacingRight=4;overflow=hidden;rotatable=0;points=[[0,0.5],[1,0.5]];portConstraint=eastwest;rounded=0;shadow=0;html=0;" parent="Oq5GghOHbWDhTfEL8BB2-227" vertex="1">
          <mxGeometry y="390" width="280" height="26" as="geometry" />
        </mxCell>
        <mxCell id="Oq5GghOHbWDhTfEL8BB2-256" value="- int selectedItemIdx = -1;" style="text;align=left;verticalAlign=top;spacingLeft=4;spacingRight=4;overflow=hidden;rotatable=0;points=[[0,0.5],[1,0.5]];portConstraint=eastwest;rounded=0;shadow=0;html=0;" parent="Oq5GghOHbWDhTfEL8BB2-227" vertex="1">
          <mxGeometry y="416" width="280" height="26" as="geometry" />
        </mxCell>
        <mxCell id="Oq5GghOHbWDhTfEL8BB2-257" value="- int curEquipIdx;" style="text;align=left;verticalAlign=top;spacingLeft=4;spacingRight=4;overflow=hidden;rotatable=0;points=[[0,0.5],[1,0.5]];portConstraint=eastwest;rounded=0;shadow=0;html=0;" parent="Oq5GghOHbWDhTfEL8BB2-227" vertex="1">
          <mxGeometry y="442" width="280" height="26" as="geometry" />
        </mxCell>
        <mxCell id="Oq5GghOHbWDhTfEL8BB2-241" value="" style="line;html=1;strokeWidth=1;align=left;verticalAlign=middle;spacingTop=-1;spacingLeft=3;spacingRight=3;rotatable=0;labelPosition=right;points=[];portConstraint=eastwest;" parent="Oq5GghOHbWDhTfEL8BB2-227" vertex="1">
          <mxGeometry y="468" width="280" height="8" as="geometry" />
        </mxCell>
        <mxCell id="Oq5GghOHbWDhTfEL8BB2-243" value="- void Start()" style="text;align=left;verticalAlign=top;spacingLeft=4;spacingRight=4;overflow=hidden;rotatable=0;points=[[0,0.5],[1,0.5]];portConstraint=eastwest;rounded=0;shadow=0;html=0;" parent="Oq5GghOHbWDhTfEL8BB2-227" vertex="1">
          <mxGeometry y="476" width="280" height="26" as="geometry" />
        </mxCell>
        <mxCell id="Oq5GghOHbWDhTfEL8BB2-246" value="" style="line;html=1;strokeWidth=1;align=left;verticalAlign=middle;spacingTop=-1;spacingLeft=3;spacingRight=3;rotatable=0;labelPosition=right;points=[];portConstraint=eastwest;" parent="Oq5GghOHbWDhTfEL8BB2-227" vertex="1">
          <mxGeometry y="502" width="280" height="8" as="geometry" />
        </mxCell>
        <mxCell id="Oq5GghOHbWDhTfEL8BB2-247" value="- void ClearSelectedItemWnd()" style="text;align=left;verticalAlign=top;spacingLeft=4;spacingRight=4;overflow=hidden;rotatable=0;points=[[0,0.5],[1,0.5]];portConstraint=eastwest;rounded=0;shadow=0;html=0;" parent="Oq5GghOHbWDhTfEL8BB2-227" vertex="1">
          <mxGeometry y="510" width="280" height="26" as="geometry" />
        </mxCell>
        <mxCell id="Oq5GghOHbWDhTfEL8BB2-248" value="+ void Toggle()" style="text;align=left;verticalAlign=top;spacingLeft=4;spacingRight=4;overflow=hidden;rotatable=0;points=[[0,0.5],[1,0.5]];portConstraint=eastwest;rounded=0;shadow=0;html=0;" parent="Oq5GghOHbWDhTfEL8BB2-227" vertex="1">
          <mxGeometry y="536" width="280" height="26" as="geometry" />
        </mxCell>
        <mxCell id="Oq5GghOHbWDhTfEL8BB2-249" value="+ bool IsOpen()" style="text;align=left;verticalAlign=top;spacingLeft=4;spacingRight=4;overflow=hidden;rotatable=0;points=[[0,0.5],[1,0.5]];portConstraint=eastwest;rounded=0;shadow=0;html=0;" parent="Oq5GghOHbWDhTfEL8BB2-227" vertex="1">
          <mxGeometry y="562" width="280" height="26" as="geometry" />
        </mxCell>
        <mxCell id="Oq5GghOHbWDhTfEL8BB2-250" value="- void AddItem()" style="text;align=left;verticalAlign=top;spacingLeft=4;spacingRight=4;overflow=hidden;rotatable=0;points=[[0,0.5],[1,0.5]];portConstraint=eastwest;rounded=0;shadow=0;html=0;" parent="Oq5GghOHbWDhTfEL8BB2-227" vertex="1">
          <mxGeometry y="588" width="280" height="26" as="geometry" />
        </mxCell>
        <mxCell id="Oq5GghOHbWDhTfEL8BB2-251" value="- void UpdateUI()" style="text;align=left;verticalAlign=top;spacingLeft=4;spacingRight=4;overflow=hidden;rotatable=0;points=[[0,0.5],[1,0.5]];portConstraint=eastwest;rounded=0;shadow=0;html=0;" parent="Oq5GghOHbWDhTfEL8BB2-227" vertex="1">
          <mxGeometry y="614" width="280" height="26" as="geometry" />
        </mxCell>
        <mxCell id="Oq5GghOHbWDhTfEL8BB2-252" value="- ItemSlot GetItemStack(ItemData data)" style="text;align=left;verticalAlign=top;spacingLeft=4;spacingRight=4;overflow=hidden;rotatable=0;points=[[0,0.5],[1,0.5]];portConstraint=eastwest;rounded=0;shadow=0;html=0;" parent="Oq5GghOHbWDhTfEL8BB2-227" vertex="1">
          <mxGeometry y="640" width="280" height="26" as="geometry" />
        </mxCell>
        <mxCell id="Oq5GghOHbWDhTfEL8BB2-253" value="- ItemSlot GetEmptySlot()" style="text;align=left;verticalAlign=top;spacingLeft=4;spacingRight=4;overflow=hidden;rotatable=0;points=[[0,0.5],[1,0.5]];portConstraint=eastwest;rounded=0;shadow=0;html=0;" parent="Oq5GghOHbWDhTfEL8BB2-227" vertex="1">
          <mxGeometry y="666" width="280" height="26" as="geometry" />
        </mxCell>
        <mxCell id="Oq5GghOHbWDhTfEL8BB2-254" value="- void ThrowItem(ItemData data)" style="text;align=left;verticalAlign=top;spacingLeft=4;spacingRight=4;overflow=hidden;rotatable=0;points=[[0,0.5],[1,0.5]];portConstraint=eastwest;rounded=0;shadow=0;html=0;" parent="Oq5GghOHbWDhTfEL8BB2-227" vertex="1">
          <mxGeometry y="692" width="280" height="26" as="geometry" />
        </mxCell>
        <mxCell id="Oq5GghOHbWDhTfEL8BB2-288" value="+ void SelectItem(int index)" style="text;align=left;verticalAlign=top;spacingLeft=4;spacingRight=4;overflow=hidden;rotatable=0;points=[[0,0.5],[1,0.5]];portConstraint=eastwest;rounded=0;shadow=0;html=0;" parent="Oq5GghOHbWDhTfEL8BB2-227" vertex="1">
          <mxGeometry y="718" width="280" height="26" as="geometry" />
        </mxCell>
        <mxCell id="Oq5GghOHbWDhTfEL8BB2-289" value="+ void OnUseBtn()" style="text;align=left;verticalAlign=top;spacingLeft=4;spacingRight=4;overflow=hidden;rotatable=0;points=[[0,0.5],[1,0.5]];portConstraint=eastwest;rounded=0;shadow=0;html=0;" parent="Oq5GghOHbWDhTfEL8BB2-227" vertex="1">
          <mxGeometry y="744" width="280" height="26" as="geometry" />
        </mxCell>
        <mxCell id="Oq5GghOHbWDhTfEL8BB2-290" value="+ void OnDropBtn()" style="text;align=left;verticalAlign=top;spacingLeft=4;spacingRight=4;overflow=hidden;rotatable=0;points=[[0,0.5],[1,0.5]];portConstraint=eastwest;rounded=0;shadow=0;html=0;" parent="Oq5GghOHbWDhTfEL8BB2-227" vertex="1">
          <mxGeometry y="770" width="280" height="26" as="geometry" />
        </mxCell>
        <mxCell id="Oq5GghOHbWDhTfEL8BB2-291" value="- void RemoveSelectedItem()" style="text;align=left;verticalAlign=top;spacingLeft=4;spacingRight=4;overflow=hidden;rotatable=0;points=[[0,0.5],[1,0.5]];portConstraint=eastwest;rounded=0;shadow=0;html=0;" parent="Oq5GghOHbWDhTfEL8BB2-227" vertex="1">
          <mxGeometry y="796" width="280" height="26" as="geometry" />
        </mxCell>
        <mxCell id="Oq5GghOHbWDhTfEL8BB2-292" value="+ void OnEquipBtn()" style="text;align=left;verticalAlign=top;spacingLeft=4;spacingRight=4;overflow=hidden;rotatable=0;points=[[0,0.5],[1,0.5]];portConstraint=eastwest;rounded=0;shadow=0;html=0;" parent="Oq5GghOHbWDhTfEL8BB2-227" vertex="1">
          <mxGeometry y="822" width="280" height="26" as="geometry" />
        </mxCell>
        <mxCell id="Oq5GghOHbWDhTfEL8BB2-293" value="- void UnEquip(int idx)" style="text;align=left;verticalAlign=top;spacingLeft=4;spacingRight=4;overflow=hidden;rotatable=0;points=[[0,0.5],[1,0.5]];portConstraint=eastwest;rounded=0;shadow=0;html=0;" parent="Oq5GghOHbWDhTfEL8BB2-227" vertex="1">
          <mxGeometry y="848" width="280" height="26" as="geometry" />
        </mxCell>
        <mxCell id="Oq5GghOHbWDhTfEL8BB2-294" value="+ void OnUnEquipBtn()" style="text;align=left;verticalAlign=top;spacingLeft=4;spacingRight=4;overflow=hidden;rotatable=0;points=[[0,0.5],[1,0.5]];portConstraint=eastwest;rounded=0;shadow=0;html=0;" parent="Oq5GghOHbWDhTfEL8BB2-227" vertex="1">
          <mxGeometry y="874" width="280" height="26" as="geometry" />
        </mxCell>
        <mxCell id="Oq5GghOHbWDhTfEL8BB2-295" value="Equip" style="swimlane;fontStyle=0;align=center;verticalAlign=top;childLayout=stackLayout;horizontal=1;startSize=26;horizontalStack=0;resizeParent=1;resizeLast=0;collapsible=1;marginBottom=0;rounded=0;shadow=0;strokeWidth=1;" parent="WIyWlLk6GJQsqaUBKTNV-1" vertex="1">
          <mxGeometry x="1880" y="80" width="240" height="86" as="geometry">
            <mxRectangle x="340" y="380" width="170" height="26" as="alternateBounds" />
          </mxGeometry>
        </mxCell>
        <mxCell id="Oq5GghOHbWDhTfEL8BB2-296" value=" " style="text;align=left;verticalAlign=top;spacingLeft=4;spacingRight=4;overflow=hidden;rotatable=0;points=[[0,0.5],[1,0.5]];portConstraint=eastwest;rounded=0;shadow=0;html=0;" parent="Oq5GghOHbWDhTfEL8BB2-295" vertex="1">
          <mxGeometry y="26" width="240" height="26" as="geometry" />
        </mxCell>
        <mxCell id="Oq5GghOHbWDhTfEL8BB2-297" value="" style="line;html=1;strokeWidth=1;align=left;verticalAlign=middle;spacingTop=-1;spacingLeft=3;spacingRight=3;rotatable=0;labelPosition=right;points=[];portConstraint=eastwest;" parent="Oq5GghOHbWDhTfEL8BB2-295" vertex="1">
          <mxGeometry y="52" width="240" height="8" as="geometry" />
        </mxCell>
        <mxCell id="Oq5GghOHbWDhTfEL8BB2-298" value="+ virtual void OnAttackInput()" style="text;align=left;verticalAlign=top;spacingLeft=4;spacingRight=4;overflow=hidden;rotatable=0;points=[[0,0.5],[1,0.5]];portConstraint=eastwest;" parent="Oq5GghOHbWDhTfEL8BB2-295" vertex="1">
          <mxGeometry y="60" width="240" height="26" as="geometry" />
        </mxCell>
        <mxCell id="Oq5GghOHbWDhTfEL8BB2-299" value="EquipTool" style="swimlane;fontStyle=2;align=center;verticalAlign=top;childLayout=stackLayout;horizontal=1;startSize=26;horizontalStack=0;resizeParent=1;resizeLast=0;collapsible=1;marginBottom=0;rounded=0;shadow=0;strokeWidth=1;" parent="WIyWlLk6GJQsqaUBKTNV-1" vertex="1">
          <mxGeometry x="1880" y="280" width="280" height="380" as="geometry">
            <mxRectangle x="230" y="140" width="160" height="26" as="alternateBounds" />
          </mxGeometry>
        </mxCell>
        <mxCell id="Oq5GghOHbWDhTfEL8BB2-300" value="+ float attackRate;" style="text;align=left;verticalAlign=top;spacingLeft=4;spacingRight=4;overflow=hidden;rotatable=0;points=[[0,0.5],[1,0.5]];portConstraint=eastwest;" parent="Oq5GghOHbWDhTfEL8BB2-299" vertex="1">
          <mxGeometry y="26" width="280" height="26" as="geometry" />
        </mxCell>
        <mxCell id="Oq5GghOHbWDhTfEL8BB2-301" value="- bool attacking;" style="text;align=left;verticalAlign=top;spacingLeft=4;spacingRight=4;overflow=hidden;rotatable=0;points=[[0,0.5],[1,0.5]];portConstraint=eastwest;rounded=0;shadow=0;html=0;" parent="Oq5GghOHbWDhTfEL8BB2-299" vertex="1">
          <mxGeometry y="52" width="280" height="26" as="geometry" />
        </mxCell>
        <mxCell id="Oq5GghOHbWDhTfEL8BB2-302" value="+ float attackDistance;" style="text;align=left;verticalAlign=top;spacingLeft=4;spacingRight=4;overflow=hidden;rotatable=0;points=[[0,0.5],[1,0.5]];portConstraint=eastwest;rounded=0;shadow=0;html=0;" parent="Oq5GghOHbWDhTfEL8BB2-299" vertex="1">
          <mxGeometry y="78" width="280" height="26" as="geometry" />
        </mxCell>
        <mxCell id="Oq5GghOHbWDhTfEL8BB2-303" value="+ float useStamina;" style="text;align=left;verticalAlign=top;spacingLeft=4;spacingRight=4;overflow=hidden;rotatable=0;points=[[0,0.5],[1,0.5]];portConstraint=eastwest;rounded=0;shadow=0;html=0;" parent="Oq5GghOHbWDhTfEL8BB2-299" vertex="1">
          <mxGeometry y="104" width="280" height="26" as="geometry" />
        </mxCell>
        <mxCell id="Oq5GghOHbWDhTfEL8BB2-304" value="+ bool doesGatherResources;" style="text;align=left;verticalAlign=top;spacingLeft=4;spacingRight=4;overflow=hidden;rotatable=0;points=[[0,0.5],[1,0.5]];portConstraint=eastwest;rounded=0;shadow=0;html=0;" parent="Oq5GghOHbWDhTfEL8BB2-299" vertex="1">
          <mxGeometry y="130" width="280" height="26" as="geometry" />
        </mxCell>
        <mxCell id="Oq5GghOHbWDhTfEL8BB2-305" value="+ bool doesDealDamage;" style="text;align=left;verticalAlign=top;spacingLeft=4;spacingRight=4;overflow=hidden;rotatable=0;points=[[0,0.5],[1,0.5]];portConstraint=eastwest;rounded=0;shadow=0;html=0;" parent="Oq5GghOHbWDhTfEL8BB2-299" vertex="1">
          <mxGeometry y="156" width="280" height="26" as="geometry" />
        </mxCell>
        <mxCell id="Oq5GghOHbWDhTfEL8BB2-306" value="+ int damage;" style="text;align=left;verticalAlign=top;spacingLeft=4;spacingRight=4;overflow=hidden;rotatable=0;points=[[0,0.5],[1,0.5]];portConstraint=eastwest;rounded=0;shadow=0;html=0;" parent="Oq5GghOHbWDhTfEL8BB2-299" vertex="1">
          <mxGeometry y="182" width="280" height="26" as="geometry" />
        </mxCell>
        <mxCell id="Oq5GghOHbWDhTfEL8BB2-307" value="- Animator animator;" style="text;align=left;verticalAlign=top;spacingLeft=4;spacingRight=4;overflow=hidden;rotatable=0;points=[[0,0.5],[1,0.5]];portConstraint=eastwest;rounded=0;shadow=0;html=0;" parent="Oq5GghOHbWDhTfEL8BB2-299" vertex="1">
          <mxGeometry y="208" width="280" height="26" as="geometry" />
        </mxCell>
        <mxCell id="Oq5GghOHbWDhTfEL8BB2-316" value="- Camera _camera;" style="text;align=left;verticalAlign=top;spacingLeft=4;spacingRight=4;overflow=hidden;rotatable=0;points=[[0,0.5],[1,0.5]];portConstraint=eastwest;rounded=0;shadow=0;html=0;" parent="Oq5GghOHbWDhTfEL8BB2-299" vertex="1">
          <mxGeometry y="234" width="280" height="26" as="geometry" />
        </mxCell>
        <mxCell id="Oq5GghOHbWDhTfEL8BB2-308" value="" style="line;html=1;strokeWidth=1;align=left;verticalAlign=middle;spacingTop=-1;spacingLeft=3;spacingRight=3;rotatable=0;labelPosition=right;points=[];portConstraint=eastwest;" parent="Oq5GghOHbWDhTfEL8BB2-299" vertex="1">
          <mxGeometry y="260" width="280" height="8" as="geometry" />
        </mxCell>
        <mxCell id="Oq5GghOHbWDhTfEL8BB2-309" value="- void Start()" style="text;align=left;verticalAlign=top;spacingLeft=4;spacingRight=4;overflow=hidden;rotatable=0;points=[[0,0.5],[1,0.5]];portConstraint=eastwest;rounded=0;shadow=0;html=0;" parent="Oq5GghOHbWDhTfEL8BB2-299" vertex="1">
          <mxGeometry y="268" width="280" height="26" as="geometry" />
        </mxCell>
        <mxCell id="Oq5GghOHbWDhTfEL8BB2-311" value="" style="line;html=1;strokeWidth=1;align=left;verticalAlign=middle;spacingTop=-1;spacingLeft=3;spacingRight=3;rotatable=0;labelPosition=right;points=[];portConstraint=eastwest;" parent="Oq5GghOHbWDhTfEL8BB2-299" vertex="1">
          <mxGeometry y="294" width="280" height="8" as="geometry" />
        </mxCell>
        <mxCell id="Oq5GghOHbWDhTfEL8BB2-312" value="+ override void OnAttackInput()" style="text;align=left;verticalAlign=top;spacingLeft=4;spacingRight=4;overflow=hidden;rotatable=0;points=[[0,0.5],[1,0.5]];portConstraint=eastwest;rounded=0;shadow=0;html=0;" parent="Oq5GghOHbWDhTfEL8BB2-299" vertex="1">
          <mxGeometry y="302" width="280" height="26" as="geometry" />
        </mxCell>
        <mxCell id="Oq5GghOHbWDhTfEL8BB2-313" value="- void OnCanAttack()" style="text;align=left;verticalAlign=top;spacingLeft=4;spacingRight=4;overflow=hidden;rotatable=0;points=[[0,0.5],[1,0.5]];portConstraint=eastwest;rounded=0;shadow=0;html=0;" parent="Oq5GghOHbWDhTfEL8BB2-299" vertex="1">
          <mxGeometry y="328" width="280" height="26" as="geometry" />
        </mxCell>
        <mxCell id="Oq5GghOHbWDhTfEL8BB2-317" value="+ void OnHit()" style="text;align=left;verticalAlign=top;spacingLeft=4;spacingRight=4;overflow=hidden;rotatable=0;points=[[0,0.5],[1,0.5]];portConstraint=eastwest;rounded=0;shadow=0;html=0;" parent="Oq5GghOHbWDhTfEL8BB2-299" vertex="1">
          <mxGeometry y="354" width="280" height="26" as="geometry" />
        </mxCell>
        <mxCell id="Oq5GghOHbWDhTfEL8BB2-315" style="edgeStyle=orthogonalEdgeStyle;shape=connector;curved=0;rounded=0;orthogonalLoop=1;jettySize=auto;html=1;entryX=0.508;entryY=1.01;entryDx=0;entryDy=0;entryPerimeter=0;shadow=0;strokeColor=default;strokeWidth=1;align=center;verticalAlign=middle;fontFamily=Helvetica;fontSize=11;fontColor=default;labelBackgroundColor=default;elbow=vertical;endArrow=block;endFill=0;endSize=10;" parent="WIyWlLk6GJQsqaUBKTNV-1" source="Oq5GghOHbWDhTfEL8BB2-299" target="Oq5GghOHbWDhTfEL8BB2-298" edge="1">
          <mxGeometry relative="1" as="geometry" />
        </mxCell>
        <mxCell id="Oq5GghOHbWDhTfEL8BB2-318" value="IInteractable" style="swimlane;fontStyle=0;align=center;verticalAlign=top;childLayout=stackLayout;horizontal=1;startSize=26;horizontalStack=0;resizeParent=1;resizeLast=0;collapsible=1;marginBottom=0;rounded=0;shadow=0;strokeWidth=1;" parent="WIyWlLk6GJQsqaUBKTNV-1" vertex="1">
          <mxGeometry x="2240" y="80" width="240" height="112" as="geometry">
            <mxRectangle x="340" y="380" width="170" height="26" as="alternateBounds" />
          </mxGeometry>
        </mxCell>
        <mxCell id="Oq5GghOHbWDhTfEL8BB2-319" value=" " style="text;align=left;verticalAlign=top;spacingLeft=4;spacingRight=4;overflow=hidden;rotatable=0;points=[[0,0.5],[1,0.5]];portConstraint=eastwest;rounded=0;shadow=0;html=0;" parent="Oq5GghOHbWDhTfEL8BB2-318" vertex="1">
          <mxGeometry y="26" width="240" height="26" as="geometry" />
        </mxCell>
        <mxCell id="Oq5GghOHbWDhTfEL8BB2-320" value="" style="line;html=1;strokeWidth=1;align=left;verticalAlign=middle;spacingTop=-1;spacingLeft=3;spacingRight=3;rotatable=0;labelPosition=right;points=[];portConstraint=eastwest;" parent="Oq5GghOHbWDhTfEL8BB2-318" vertex="1">
          <mxGeometry y="52" width="240" height="8" as="geometry" />
        </mxCell>
        <mxCell id="Oq5GghOHbWDhTfEL8BB2-321" value="+ string GetInteractPrompt();" style="text;align=left;verticalAlign=top;spacingLeft=4;spacingRight=4;overflow=hidden;rotatable=0;points=[[0,0.5],[1,0.5]];portConstraint=eastwest;" parent="Oq5GghOHbWDhTfEL8BB2-318" vertex="1">
          <mxGeometry y="60" width="240" height="26" as="geometry" />
        </mxCell>
        <mxCell id="Oq5GghOHbWDhTfEL8BB2-322" value="+ void OnInteract();" style="text;align=left;verticalAlign=top;spacingLeft=4;spacingRight=4;overflow=hidden;rotatable=0;points=[[0,0.5],[1,0.5]];portConstraint=eastwest;" parent="Oq5GghOHbWDhTfEL8BB2-318" vertex="1">
          <mxGeometry y="86" width="240" height="26" as="geometry" />
        </mxCell>
        <mxCell id="Oq5GghOHbWDhTfEL8BB2-328" style="edgeStyle=orthogonalEdgeStyle;shape=connector;curved=0;rounded=0;orthogonalLoop=1;jettySize=auto;html=1;shadow=0;strokeColor=default;strokeWidth=1;align=center;verticalAlign=middle;fontFamily=Helvetica;fontSize=11;fontColor=default;labelBackgroundColor=default;elbow=vertical;endArrow=block;endFill=0;endSize=10;" parent="WIyWlLk6GJQsqaUBKTNV-1" source="Oq5GghOHbWDhTfEL8BB2-323" target="Oq5GghOHbWDhTfEL8BB2-318" edge="1">
          <mxGeometry relative="1" as="geometry" />
        </mxCell>
        <mxCell id="Oq5GghOHbWDhTfEL8BB2-323" value="IInteractable" style="swimlane;fontStyle=0;align=center;verticalAlign=top;childLayout=stackLayout;horizontal=1;startSize=26;horizontalStack=0;resizeParent=1;resizeLast=0;collapsible=1;marginBottom=0;rounded=0;shadow=0;strokeWidth=1;" parent="WIyWlLk6GJQsqaUBKTNV-1" vertex="1">
          <mxGeometry x="2240" y="280" width="240" height="112" as="geometry">
            <mxRectangle x="340" y="380" width="170" height="26" as="alternateBounds" />
          </mxGeometry>
        </mxCell>
        <mxCell id="Oq5GghOHbWDhTfEL8BB2-324" value="+ ItemData data;" style="text;align=left;verticalAlign=top;spacingLeft=4;spacingRight=4;overflow=hidden;rotatable=0;points=[[0,0.5],[1,0.5]];portConstraint=eastwest;rounded=0;shadow=0;html=0;" parent="Oq5GghOHbWDhTfEL8BB2-323" vertex="1">
          <mxGeometry y="26" width="240" height="26" as="geometry" />
        </mxCell>
        <mxCell id="Oq5GghOHbWDhTfEL8BB2-325" value="" style="line;html=1;strokeWidth=1;align=left;verticalAlign=middle;spacingTop=-1;spacingLeft=3;spacingRight=3;rotatable=0;labelPosition=right;points=[];portConstraint=eastwest;" parent="Oq5GghOHbWDhTfEL8BB2-323" vertex="1">
          <mxGeometry y="52" width="240" height="8" as="geometry" />
        </mxCell>
        <mxCell id="Oq5GghOHbWDhTfEL8BB2-326" value="+ string GetInteractPrompt()" style="text;align=left;verticalAlign=top;spacingLeft=4;spacingRight=4;overflow=hidden;rotatable=0;points=[[0,0.5],[1,0.5]];portConstraint=eastwest;" parent="Oq5GghOHbWDhTfEL8BB2-323" vertex="1">
          <mxGeometry y="60" width="240" height="26" as="geometry" />
        </mxCell>
        <mxCell id="Oq5GghOHbWDhTfEL8BB2-327" value="+ void OnInteract()" style="text;align=left;verticalAlign=top;spacingLeft=4;spacingRight=4;overflow=hidden;rotatable=0;points=[[0,0.5],[1,0.5]];portConstraint=eastwest;" parent="Oq5GghOHbWDhTfEL8BB2-323" vertex="1">
          <mxGeometry y="86" width="240" height="26" as="geometry" />
        </mxCell>
        <mxCell id="Oq5GghOHbWDhTfEL8BB2-329" value="IInteractable" style="swimlane;fontStyle=0;align=center;verticalAlign=top;childLayout=stackLayout;horizontal=1;startSize=26;horizontalStack=0;resizeParent=1;resizeLast=0;collapsible=1;marginBottom=0;rounded=0;shadow=0;strokeWidth=1;" parent="WIyWlLk6GJQsqaUBKTNV-1" vertex="1">
          <mxGeometry x="2560" y="280" width="240" height="138" as="geometry">
            <mxRectangle x="340" y="380" width="170" height="26" as="alternateBounds" />
          </mxGeometry>
        </mxCell>
        <mxCell id="Oq5GghOHbWDhTfEL8BB2-330" value="+ ItemData itemToGive;" style="text;align=left;verticalAlign=top;spacingLeft=4;spacingRight=4;overflow=hidden;rotatable=0;points=[[0,0.5],[1,0.5]];portConstraint=eastwest;rounded=0;shadow=0;html=0;" parent="Oq5GghOHbWDhTfEL8BB2-329" vertex="1">
          <mxGeometry y="26" width="240" height="26" as="geometry" />
        </mxCell>
        <mxCell id="Oq5GghOHbWDhTfEL8BB2-334" value="+ int quantityPerHit = 1;" style="text;align=left;verticalAlign=top;spacingLeft=4;spacingRight=4;overflow=hidden;rotatable=0;points=[[0,0.5],[1,0.5]];portConstraint=eastwest;rounded=0;shadow=0;html=0;" parent="Oq5GghOHbWDhTfEL8BB2-329" vertex="1">
          <mxGeometry y="52" width="240" height="26" as="geometry" />
        </mxCell>
        <mxCell id="Oq5GghOHbWDhTfEL8BB2-335" value="+ int capacity;" style="text;align=left;verticalAlign=top;spacingLeft=4;spacingRight=4;overflow=hidden;rotatable=0;points=[[0,0.5],[1,0.5]];portConstraint=eastwest;rounded=0;shadow=0;html=0;" parent="Oq5GghOHbWDhTfEL8BB2-329" vertex="1">
          <mxGeometry y="78" width="240" height="26" as="geometry" />
        </mxCell>
        <mxCell id="Oq5GghOHbWDhTfEL8BB2-331" value="" style="line;html=1;strokeWidth=1;align=left;verticalAlign=middle;spacingTop=-1;spacingLeft=3;spacingRight=3;rotatable=0;labelPosition=right;points=[];portConstraint=eastwest;" parent="Oq5GghOHbWDhTfEL8BB2-329" vertex="1">
          <mxGeometry y="104" width="240" height="8" as="geometry" />
        </mxCell>
        <mxCell id="Oq5GghOHbWDhTfEL8BB2-332" value="+ void Gather(Vector3 hitPoint, Vector3 hitNormal)" style="text;align=left;verticalAlign=top;spacingLeft=4;spacingRight=4;overflow=hidden;rotatable=0;points=[[0,0.5],[1,0.5]];portConstraint=eastwest;" parent="Oq5GghOHbWDhTfEL8BB2-329" vertex="1">
          <mxGeometry y="112" width="240" height="26" as="geometry" />
        </mxCell>
        <mxCell id="Oq5GghOHbWDhTfEL8BB2-336" value="&lt;h1 style=&quot;margin-top: 0px;&quot;&gt;Player관련&lt;/h1&gt;" style="text;html=1;whiteSpace=wrap;overflow=hidden;rounded=0;fontFamily=Helvetica;fontSize=11;fontColor=default;labelBackgroundColor=default;" parent="WIyWlLk6GJQsqaUBKTNV-1" vertex="1">
          <mxGeometry x="90" y="20" width="180" height="120" as="geometry" />
        </mxCell>
        <mxCell id="Oq5GghOHbWDhTfEL8BB2-338" value="" style="endArrow=none;dashed=1;html=1;rounded=0;shadow=0;strokeColor=default;strokeWidth=1;align=center;verticalAlign=middle;fontFamily=Helvetica;fontSize=11;fontColor=default;labelBackgroundColor=default;edgeStyle=orthogonalEdgeStyle;elbow=vertical;endSize=10;curved=0;" parent="WIyWlLk6GJQsqaUBKTNV-1" edge="1">
          <mxGeometry width="50" height="50" relative="1" as="geometry">
            <mxPoint x="890" y="870" as="sourcePoint" />
            <mxPoint x="940" y="820" as="targetPoint" />
          </mxGeometry>
        </mxCell>
        <mxCell id="Oq5GghOHbWDhTfEL8BB2-340" value="&lt;h1 style=&quot;margin-top: 0px;&quot;&gt;Item관련&lt;/h1&gt;&lt;p&gt;&lt;br&gt;&lt;/p&gt;" style="text;html=1;whiteSpace=wrap;overflow=hidden;rounded=0;fontFamily=Helvetica;fontSize=11;fontColor=default;labelBackgroundColor=default;" parent="WIyWlLk6GJQsqaUBKTNV-1" vertex="1">
          <mxGeometry x="2660" y="63" width="180" height="120" as="geometry" />
        </mxCell>
        <mxCell id="Oq5GghOHbWDhTfEL8BB2-342" value="&lt;h1 style=&quot;margin-top: 0px;&quot;&gt;UI관련&lt;/h1&gt;" style="text;html=1;whiteSpace=wrap;overflow=hidden;rounded=0;fontFamily=Helvetica;fontSize=11;fontColor=default;labelBackgroundColor=default;" parent="WIyWlLk6GJQsqaUBKTNV-1" vertex="1">
          <mxGeometry x="80" y="1380" width="180" height="70" as="geometry" />
        </mxCell>
        <mxCell id="Oq5GghOHbWDhTfEL8BB2-343" value="ItemDataConsumable" style="swimlane;fontStyle=0;align=center;verticalAlign=top;childLayout=stackLayout;horizontal=1;startSize=26;horizontalStack=0;resizeParent=1;resizeLast=0;collapsible=1;marginBottom=0;rounded=0;shadow=0;strokeWidth=1;" parent="WIyWlLk6GJQsqaUBKTNV-1" vertex="1">
          <mxGeometry x="1880" y="920" width="240" height="112" as="geometry">
            <mxRectangle x="340" y="380" width="170" height="26" as="alternateBounds" />
          </mxGeometry>
        </mxCell>
        <mxCell id="Oq5GghOHbWDhTfEL8BB2-347" value="+ float value;" style="text;align=left;verticalAlign=top;spacingLeft=4;spacingRight=4;overflow=hidden;rotatable=0;points=[[0,0.5],[1,0.5]];portConstraint=eastwest;" parent="Oq5GghOHbWDhTfEL8BB2-343" vertex="1">
          <mxGeometry y="26" width="240" height="26" as="geometry" />
        </mxCell>
        <mxCell id="Oq5GghOHbWDhTfEL8BB2-346" value="+ CounsumableType type;" style="text;align=left;verticalAlign=top;spacingLeft=4;spacingRight=4;overflow=hidden;rotatable=0;points=[[0,0.5],[1,0.5]];portConstraint=eastwest;" parent="Oq5GghOHbWDhTfEL8BB2-343" vertex="1">
          <mxGeometry y="52" width="240" height="26" as="geometry" />
        </mxCell>
        <mxCell id="Oq5GghOHbWDhTfEL8BB2-345" value="" style="line;html=1;strokeWidth=1;align=left;verticalAlign=middle;spacingTop=-1;spacingLeft=3;spacingRight=3;rotatable=0;labelPosition=right;points=[];portConstraint=eastwest;" parent="Oq5GghOHbWDhTfEL8BB2-343" vertex="1">
          <mxGeometry y="78" width="240" height="8" as="geometry" />
        </mxCell>
        <mxCell id="Oq5GghOHbWDhTfEL8BB2-344" value=" " style="text;align=left;verticalAlign=top;spacingLeft=4;spacingRight=4;overflow=hidden;rotatable=0;points=[[0,0.5],[1,0.5]];portConstraint=eastwest;rounded=0;shadow=0;html=0;" parent="Oq5GghOHbWDhTfEL8BB2-343" vertex="1">
          <mxGeometry y="86" width="240" height="26" as="geometry" />
        </mxCell>
        <mxCell id="Oq5GghOHbWDhTfEL8BB2-348" value="ItemData" style="swimlane;fontStyle=2;align=center;verticalAlign=top;childLayout=stackLayout;horizontal=1;startSize=26;horizontalStack=0;resizeParent=1;resizeLast=0;collapsible=1;marginBottom=0;rounded=0;shadow=0;strokeWidth=1;" parent="WIyWlLk6GJQsqaUBKTNV-1" vertex="1">
          <mxGeometry x="2240" y="920" width="280" height="380" as="geometry">
            <mxRectangle x="230" y="140" width="160" height="26" as="alternateBounds" />
          </mxGeometry>
        </mxCell>
        <mxCell id="Oq5GghOHbWDhTfEL8BB2-349" value="+ string displayName;" style="text;align=left;verticalAlign=top;spacingLeft=4;spacingRight=4;overflow=hidden;rotatable=0;points=[[0,0.5],[1,0.5]];portConstraint=eastwest;" parent="Oq5GghOHbWDhTfEL8BB2-348" vertex="1">
          <mxGeometry y="26" width="280" height="26" as="geometry" />
        </mxCell>
        <mxCell id="Oq5GghOHbWDhTfEL8BB2-350" value="+ string decription;" style="text;align=left;verticalAlign=top;spacingLeft=4;spacingRight=4;overflow=hidden;rotatable=0;points=[[0,0.5],[1,0.5]];portConstraint=eastwest;rounded=0;shadow=0;html=0;" parent="Oq5GghOHbWDhTfEL8BB2-348" vertex="1">
          <mxGeometry y="52" width="280" height="26" as="geometry" />
        </mxCell>
        <mxCell id="Oq5GghOHbWDhTfEL8BB2-351" value="+ ItemType type;" style="text;align=left;verticalAlign=top;spacingLeft=4;spacingRight=4;overflow=hidden;rotatable=0;points=[[0,0.5],[1,0.5]];portConstraint=eastwest;rounded=0;shadow=0;html=0;" parent="Oq5GghOHbWDhTfEL8BB2-348" vertex="1">
          <mxGeometry y="78" width="280" height="26" as="geometry" />
        </mxCell>
        <mxCell id="Oq5GghOHbWDhTfEL8BB2-352" value="+ Sprite icon;" style="text;align=left;verticalAlign=top;spacingLeft=4;spacingRight=4;overflow=hidden;rotatable=0;points=[[0,0.5],[1,0.5]];portConstraint=eastwest;rounded=0;shadow=0;html=0;" parent="Oq5GghOHbWDhTfEL8BB2-348" vertex="1">
          <mxGeometry y="104" width="280" height="26" as="geometry" />
        </mxCell>
        <mxCell id="Oq5GghOHbWDhTfEL8BB2-353" value="+ GameObject dropPrefab;" style="text;align=left;verticalAlign=top;spacingLeft=4;spacingRight=4;overflow=hidden;rotatable=0;points=[[0,0.5],[1,0.5]];portConstraint=eastwest;rounded=0;shadow=0;html=0;" parent="Oq5GghOHbWDhTfEL8BB2-348" vertex="1">
          <mxGeometry y="130" width="280" height="26" as="geometry" />
        </mxCell>
        <mxCell id="Oq5GghOHbWDhTfEL8BB2-354" value="+ bool canStack;" style="text;align=left;verticalAlign=top;spacingLeft=4;spacingRight=4;overflow=hidden;rotatable=0;points=[[0,0.5],[1,0.5]];portConstraint=eastwest;rounded=0;shadow=0;html=0;" parent="Oq5GghOHbWDhTfEL8BB2-348" vertex="1">
          <mxGeometry y="156" width="280" height="26" as="geometry" />
        </mxCell>
        <mxCell id="Oq5GghOHbWDhTfEL8BB2-355" value="+ int maxStackAmount;" style="text;align=left;verticalAlign=top;spacingLeft=4;spacingRight=4;overflow=hidden;rotatable=0;points=[[0,0.5],[1,0.5]];portConstraint=eastwest;rounded=0;shadow=0;html=0;" parent="Oq5GghOHbWDhTfEL8BB2-348" vertex="1">
          <mxGeometry y="182" width="280" height="26" as="geometry" />
        </mxCell>
        <mxCell id="Oq5GghOHbWDhTfEL8BB2-356" value="+ ItemDataConsumable[] consumables;" style="text;align=left;verticalAlign=top;spacingLeft=4;spacingRight=4;overflow=hidden;rotatable=0;points=[[0,0.5],[1,0.5]];portConstraint=eastwest;rounded=0;shadow=0;html=0;" parent="Oq5GghOHbWDhTfEL8BB2-348" vertex="1">
          <mxGeometry y="208" width="280" height="26" as="geometry" />
        </mxCell>
        <mxCell id="Oq5GghOHbWDhTfEL8BB2-357" value="+ GameObject equipPrefab;" style="text;align=left;verticalAlign=top;spacingLeft=4;spacingRight=4;overflow=hidden;rotatable=0;points=[[0,0.5],[1,0.5]];portConstraint=eastwest;rounded=0;shadow=0;html=0;" parent="Oq5GghOHbWDhTfEL8BB2-348" vertex="1">
          <mxGeometry y="234" width="280" height="26" as="geometry" />
        </mxCell>
        <mxCell id="Oq5GghOHbWDhTfEL8BB2-358" value="" style="line;html=1;strokeWidth=1;align=left;verticalAlign=middle;spacingTop=-1;spacingLeft=3;spacingRight=3;rotatable=0;labelPosition=right;points=[];portConstraint=eastwest;" parent="Oq5GghOHbWDhTfEL8BB2-348" vertex="1">
          <mxGeometry y="260" width="280" height="8" as="geometry" />
        </mxCell>
        <mxCell id="Oq5GghOHbWDhTfEL8BB2-359" value="  " style="text;align=left;verticalAlign=top;spacingLeft=4;spacingRight=4;overflow=hidden;rotatable=0;points=[[0,0.5],[1,0.5]];portConstraint=eastwest;rounded=0;shadow=0;html=0;" parent="Oq5GghOHbWDhTfEL8BB2-348" vertex="1">
          <mxGeometry y="268" width="280" height="26" as="geometry" />
        </mxCell>
        <mxCell id="Oq5GghOHbWDhTfEL8BB2-360" value="" style="line;html=1;strokeWidth=1;align=left;verticalAlign=middle;spacingTop=-1;spacingLeft=3;spacingRight=3;rotatable=0;labelPosition=right;points=[];portConstraint=eastwest;" parent="Oq5GghOHbWDhTfEL8BB2-348" vertex="1">
          <mxGeometry y="294" width="280" height="8" as="geometry" />
        </mxCell>
        <mxCell id="Oq5GghOHbWDhTfEL8BB2-361" value="  " style="text;align=left;verticalAlign=top;spacingLeft=4;spacingRight=4;overflow=hidden;rotatable=0;points=[[0,0.5],[1,0.5]];portConstraint=eastwest;rounded=0;shadow=0;html=0;" parent="Oq5GghOHbWDhTfEL8BB2-348" vertex="1">
          <mxGeometry y="302" width="280" height="26" as="geometry" />
        </mxCell>
        <mxCell id="Oq5GghOHbWDhTfEL8BB2-365" value="CampFire" style="swimlane;fontStyle=2;align=center;verticalAlign=top;childLayout=stackLayout;horizontal=1;startSize=26;horizontalStack=0;resizeParent=1;resizeLast=0;collapsible=1;marginBottom=0;rounded=0;shadow=0;strokeWidth=1;" parent="WIyWlLk6GJQsqaUBKTNV-1" vertex="1">
          <mxGeometry x="1880" y="1480" width="280" height="328" as="geometry">
            <mxRectangle x="230" y="140" width="160" height="26" as="alternateBounds" />
          </mxGeometry>
        </mxCell>
        <mxCell id="Oq5GghOHbWDhTfEL8BB2-366" value="+ int damage;" style="text;align=left;verticalAlign=top;spacingLeft=4;spacingRight=4;overflow=hidden;rotatable=0;points=[[0,0.5],[1,0.5]];portConstraint=eastwest;" parent="Oq5GghOHbWDhTfEL8BB2-365" vertex="1">
          <mxGeometry y="26" width="280" height="26" as="geometry" />
        </mxCell>
        <mxCell id="Oq5GghOHbWDhTfEL8BB2-367" value="+ float damageRate;" style="text;align=left;verticalAlign=top;spacingLeft=4;spacingRight=4;overflow=hidden;rotatable=0;points=[[0,0.5],[1,0.5]];portConstraint=eastwest;rounded=0;shadow=0;html=0;" parent="Oq5GghOHbWDhTfEL8BB2-365" vertex="1">
          <mxGeometry y="52" width="280" height="26" as="geometry" />
        </mxCell>
        <mxCell id="Oq5GghOHbWDhTfEL8BB2-483" value="+ float delayTime = 0;" style="text;align=left;verticalAlign=top;spacingLeft=4;spacingRight=4;overflow=hidden;rotatable=0;points=[[0,0.5],[1,0.5]];portConstraint=eastwest;rounded=0;shadow=0;html=0;" parent="Oq5GghOHbWDhTfEL8BB2-365" vertex="1">
          <mxGeometry y="78" width="280" height="26" as="geometry" />
        </mxCell>
        <mxCell id="Oq5GghOHbWDhTfEL8BB2-484" value="- float time = 0;" style="text;align=left;verticalAlign=top;spacingLeft=4;spacingRight=4;overflow=hidden;rotatable=0;points=[[0,0.5],[1,0.5]];portConstraint=eastwest;rounded=0;shadow=0;html=0;" parent="Oq5GghOHbWDhTfEL8BB2-365" vertex="1">
          <mxGeometry y="104" width="280" height="26" as="geometry" />
        </mxCell>
        <mxCell id="Oq5GghOHbWDhTfEL8BB2-486" value="- bool enter = false;" style="text;align=left;verticalAlign=top;spacingLeft=4;spacingRight=4;overflow=hidden;rotatable=0;points=[[0,0.5],[1,0.5]];portConstraint=eastwest;rounded=0;shadow=0;html=0;" parent="Oq5GghOHbWDhTfEL8BB2-365" vertex="1">
          <mxGeometry y="130" width="280" height="26" as="geometry" />
        </mxCell>
        <mxCell id="Oq5GghOHbWDhTfEL8BB2-368" value="- HashSet&lt;IDamagable&gt; things" style="text;align=left;verticalAlign=top;spacingLeft=4;spacingRight=4;overflow=hidden;rotatable=0;points=[[0,0.5],[1,0.5]];portConstraint=eastwest;rounded=0;shadow=0;html=0;" parent="Oq5GghOHbWDhTfEL8BB2-365" vertex="1">
          <mxGeometry y="156" width="280" height="26" as="geometry" />
        </mxCell>
        <mxCell id="Oq5GghOHbWDhTfEL8BB2-369" value="" style="line;html=1;strokeWidth=1;align=left;verticalAlign=middle;spacingTop=-1;spacingLeft=3;spacingRight=3;rotatable=0;labelPosition=right;points=[];portConstraint=eastwest;" parent="Oq5GghOHbWDhTfEL8BB2-365" vertex="1">
          <mxGeometry y="182" width="280" height="8" as="geometry" />
        </mxCell>
        <mxCell id="Oq5GghOHbWDhTfEL8BB2-370" value="- void Start()" style="text;align=left;verticalAlign=top;spacingLeft=4;spacingRight=4;overflow=hidden;rotatable=0;points=[[0,0.5],[1,0.5]];portConstraint=eastwest;rounded=0;shadow=0;html=0;" parent="Oq5GghOHbWDhTfEL8BB2-365" vertex="1">
          <mxGeometry y="190" width="280" height="26" as="geometry" />
        </mxCell>
        <mxCell id="Oq5GghOHbWDhTfEL8BB2-371" value="" style="line;html=1;strokeWidth=1;align=left;verticalAlign=middle;spacingTop=-1;spacingLeft=3;spacingRight=3;rotatable=0;labelPosition=right;points=[];portConstraint=eastwest;" parent="Oq5GghOHbWDhTfEL8BB2-365" vertex="1">
          <mxGeometry y="216" width="280" height="8" as="geometry" />
        </mxCell>
        <mxCell id="Oq5GghOHbWDhTfEL8BB2-372" value="- void DealDamage()" style="text;align=left;verticalAlign=top;spacingLeft=4;spacingRight=4;overflow=hidden;rotatable=0;points=[[0,0.5],[1,0.5]];portConstraint=eastwest;rounded=0;shadow=0;html=0;" parent="Oq5GghOHbWDhTfEL8BB2-365" vertex="1">
          <mxGeometry y="224" width="280" height="26" as="geometry" />
        </mxCell>
        <mxCell id="Oq5GghOHbWDhTfEL8BB2-485" value="- IEnumerator AddDelay(IDamagable damagable)" style="text;align=left;verticalAlign=top;spacingLeft=4;spacingRight=4;overflow=hidden;rotatable=0;points=[[0,0.5],[1,0.5]];portConstraint=eastwest;rounded=0;shadow=0;html=0;" parent="Oq5GghOHbWDhTfEL8BB2-365" vertex="1">
          <mxGeometry y="250" width="280" height="26" as="geometry" />
        </mxCell>
        <mxCell id="Oq5GghOHbWDhTfEL8BB2-373" value="- void OnTriggerEnter(Collider other)" style="text;align=left;verticalAlign=top;spacingLeft=4;spacingRight=4;overflow=hidden;rotatable=0;points=[[0,0.5],[1,0.5]];portConstraint=eastwest;rounded=0;shadow=0;html=0;" parent="Oq5GghOHbWDhTfEL8BB2-365" vertex="1">
          <mxGeometry y="276" width="280" height="26" as="geometry" />
        </mxCell>
        <mxCell id="Oq5GghOHbWDhTfEL8BB2-374" value="- void OnTriggerExit(Collider other)" style="text;align=left;verticalAlign=top;spacingLeft=4;spacingRight=4;overflow=hidden;rotatable=0;points=[[0,0.5],[1,0.5]];portConstraint=eastwest;rounded=0;shadow=0;html=0;" parent="Oq5GghOHbWDhTfEL8BB2-365" vertex="1">
          <mxGeometry y="302" width="280" height="26" as="geometry" />
        </mxCell>
        <mxCell id="Oq5GghOHbWDhTfEL8BB2-375" value="DayNightCycle" style="swimlane;fontStyle=2;align=center;verticalAlign=top;childLayout=stackLayout;horizontal=1;startSize=26;horizontalStack=0;resizeParent=1;resizeLast=0;collapsible=1;marginBottom=0;rounded=0;shadow=0;strokeWidth=1;" parent="WIyWlLk6GJQsqaUBKTNV-1" vertex="1">
          <mxGeometry x="2240" y="1480" width="280" height="484" as="geometry">
            <mxRectangle x="230" y="140" width="160" height="26" as="alternateBounds" />
          </mxGeometry>
        </mxCell>
        <mxCell id="Oq5GghOHbWDhTfEL8BB2-376" value="+ float time; [Range(0.0f, 1.0f)]" style="text;align=left;verticalAlign=top;spacingLeft=4;spacingRight=4;overflow=hidden;rotatable=0;points=[[0,0.5],[1,0.5]];portConstraint=eastwest;" parent="Oq5GghOHbWDhTfEL8BB2-375" vertex="1">
          <mxGeometry y="26" width="280" height="26" as="geometry" />
        </mxCell>
        <mxCell id="Oq5GghOHbWDhTfEL8BB2-377" value="+ float fullDayLength;" style="text;align=left;verticalAlign=top;spacingLeft=4;spacingRight=4;overflow=hidden;rotatable=0;points=[[0,0.5],[1,0.5]];portConstraint=eastwest;rounded=0;shadow=0;html=0;" parent="Oq5GghOHbWDhTfEL8BB2-375" vertex="1">
          <mxGeometry y="52" width="280" height="26" as="geometry" />
        </mxCell>
        <mxCell id="Oq5GghOHbWDhTfEL8BB2-378" value="+ float startTime = 0.4f;" style="text;align=left;verticalAlign=top;spacingLeft=4;spacingRight=4;overflow=hidden;rotatable=0;points=[[0,0.5],[1,0.5]];portConstraint=eastwest;rounded=0;shadow=0;html=0;" parent="Oq5GghOHbWDhTfEL8BB2-375" vertex="1">
          <mxGeometry y="78" width="280" height="26" as="geometry" />
        </mxCell>
        <mxCell id="Oq5GghOHbWDhTfEL8BB2-379" value="- float timeRate;" style="text;align=left;verticalAlign=top;spacingLeft=4;spacingRight=4;overflow=hidden;rotatable=0;points=[[0,0.5],[1,0.5]];portConstraint=eastwest;rounded=0;shadow=0;html=0;" parent="Oq5GghOHbWDhTfEL8BB2-375" vertex="1">
          <mxGeometry y="104" width="280" height="26" as="geometry" />
        </mxCell>
        <mxCell id="Oq5GghOHbWDhTfEL8BB2-380" value="+ Vector3 noon; // 정오 Vec 90 0 0" style="text;align=left;verticalAlign=top;spacingLeft=4;spacingRight=4;overflow=hidden;rotatable=0;points=[[0,0.5],[1,0.5]];portConstraint=eastwest;rounded=0;shadow=0;html=0;" parent="Oq5GghOHbWDhTfEL8BB2-375" vertex="1">
          <mxGeometry y="130" width="280" height="26" as="geometry" />
        </mxCell>
        <mxCell id="Oq5GghOHbWDhTfEL8BB2-381" value="+ Light sun;" style="text;align=left;verticalAlign=top;spacingLeft=4;spacingRight=4;overflow=hidden;rotatable=0;points=[[0,0.5],[1,0.5]];portConstraint=eastwest;rounded=0;shadow=0;html=0;" parent="Oq5GghOHbWDhTfEL8BB2-375" vertex="1">
          <mxGeometry y="156" width="280" height="26" as="geometry" />
        </mxCell>
        <mxCell id="Oq5GghOHbWDhTfEL8BB2-382" value="+ Gradient sunColor;" style="text;align=left;verticalAlign=top;spacingLeft=4;spacingRight=4;overflow=hidden;rotatable=0;points=[[0,0.5],[1,0.5]];portConstraint=eastwest;rounded=0;shadow=0;html=0;" parent="Oq5GghOHbWDhTfEL8BB2-375" vertex="1">
          <mxGeometry y="182" width="280" height="26" as="geometry" />
        </mxCell>
        <mxCell id="Oq5GghOHbWDhTfEL8BB2-383" value="+ AnimationCurve sunIntensity;" style="text;align=left;verticalAlign=top;spacingLeft=4;spacingRight=4;overflow=hidden;rotatable=0;points=[[0,0.5],[1,0.5]];portConstraint=eastwest;rounded=0;shadow=0;html=0;" parent="Oq5GghOHbWDhTfEL8BB2-375" vertex="1">
          <mxGeometry y="208" width="280" height="26" as="geometry" />
        </mxCell>
        <mxCell id="Oq5GghOHbWDhTfEL8BB2-384" value="+ Light moon;" style="text;align=left;verticalAlign=top;spacingLeft=4;spacingRight=4;overflow=hidden;rotatable=0;points=[[0,0.5],[1,0.5]];portConstraint=eastwest;rounded=0;shadow=0;html=0;" parent="Oq5GghOHbWDhTfEL8BB2-375" vertex="1">
          <mxGeometry y="234" width="280" height="26" as="geometry" />
        </mxCell>
        <mxCell id="Oq5GghOHbWDhTfEL8BB2-393" value="+ Gradient moonColor;" style="text;align=left;verticalAlign=top;spacingLeft=4;spacingRight=4;overflow=hidden;rotatable=0;points=[[0,0.5],[1,0.5]];portConstraint=eastwest;rounded=0;shadow=0;html=0;" parent="Oq5GghOHbWDhTfEL8BB2-375" vertex="1">
          <mxGeometry y="260" width="280" height="26" as="geometry" />
        </mxCell>
        <mxCell id="Oq5GghOHbWDhTfEL8BB2-392" value="+ AnimationCurve moonIntensity;" style="text;align=left;verticalAlign=top;spacingLeft=4;spacingRight=4;overflow=hidden;rotatable=0;points=[[0,0.5],[1,0.5]];portConstraint=eastwest;rounded=0;shadow=0;html=0;" parent="Oq5GghOHbWDhTfEL8BB2-375" vertex="1">
          <mxGeometry y="286" width="280" height="26" as="geometry" />
        </mxCell>
        <mxCell id="Oq5GghOHbWDhTfEL8BB2-391" value="+ AnimationCurve lightingIntensityMultiplier;" style="text;align=left;verticalAlign=top;spacingLeft=4;spacingRight=4;overflow=hidden;rotatable=0;points=[[0,0.5],[1,0.5]];portConstraint=eastwest;rounded=0;shadow=0;html=0;" parent="Oq5GghOHbWDhTfEL8BB2-375" vertex="1">
          <mxGeometry y="312" width="280" height="26" as="geometry" />
        </mxCell>
        <mxCell id="Oq5GghOHbWDhTfEL8BB2-394" value="+ AnimationCurve reflectionIntensityMultiplier;" style="text;align=left;verticalAlign=top;spacingLeft=4;spacingRight=4;overflow=hidden;rotatable=0;points=[[0,0.5],[1,0.5]];portConstraint=eastwest;rounded=0;shadow=0;html=0;" parent="Oq5GghOHbWDhTfEL8BB2-375" vertex="1">
          <mxGeometry y="338" width="280" height="26" as="geometry" />
        </mxCell>
        <mxCell id="Oq5GghOHbWDhTfEL8BB2-385" value="" style="line;html=1;strokeWidth=1;align=left;verticalAlign=middle;spacingTop=-1;spacingLeft=3;spacingRight=3;rotatable=0;labelPosition=right;points=[];portConstraint=eastwest;" parent="Oq5GghOHbWDhTfEL8BB2-375" vertex="1">
          <mxGeometry y="364" width="280" height="8" as="geometry" />
        </mxCell>
        <mxCell id="Oq5GghOHbWDhTfEL8BB2-386" value="- void Start()" style="text;align=left;verticalAlign=top;spacingLeft=4;spacingRight=4;overflow=hidden;rotatable=0;points=[[0,0.5],[1,0.5]];portConstraint=eastwest;rounded=0;shadow=0;html=0;" parent="Oq5GghOHbWDhTfEL8BB2-375" vertex="1">
          <mxGeometry y="372" width="280" height="26" as="geometry" />
        </mxCell>
        <mxCell id="Oq5GghOHbWDhTfEL8BB2-388" value="- void Update()" style="text;align=left;verticalAlign=top;spacingLeft=4;spacingRight=4;overflow=hidden;rotatable=0;points=[[0,0.5],[1,0.5]];portConstraint=eastwest;rounded=0;shadow=0;html=0;" parent="Oq5GghOHbWDhTfEL8BB2-375" vertex="1">
          <mxGeometry y="398" width="280" height="26" as="geometry" />
        </mxCell>
        <mxCell id="Oq5GghOHbWDhTfEL8BB2-387" value="" style="line;html=1;strokeWidth=1;align=left;verticalAlign=middle;spacingTop=-1;spacingLeft=3;spacingRight=3;rotatable=0;labelPosition=right;points=[];portConstraint=eastwest;" parent="Oq5GghOHbWDhTfEL8BB2-375" vertex="1">
          <mxGeometry y="424" width="280" height="8" as="geometry" />
        </mxCell>
        <mxCell id="Oq5GghOHbWDhTfEL8BB2-389" value="- void UpdateLight(Light light, Gradient gradient, AnimationCurve intensityCurve)" style="text;align=left;verticalAlign=top;spacingLeft=4;spacingRight=4;overflow=hidden;rotatable=0;points=[[0,0.5],[1,0.5]];portConstraint=eastwest;rounded=0;shadow=0;html=0;" parent="Oq5GghOHbWDhTfEL8BB2-375" vertex="1">
          <mxGeometry y="432" width="280" height="26" as="geometry" />
        </mxCell>
        <mxCell id="Oq5GghOHbWDhTfEL8BB2-395" value="&lt;h1 style=&quot;margin-top: 0px;&quot;&gt;환경관련&lt;/h1&gt;" style="text;html=1;whiteSpace=wrap;overflow=hidden;rounded=0;fontFamily=Helvetica;fontSize=11;fontColor=default;labelBackgroundColor=default;" parent="WIyWlLk6GJQsqaUBKTNV-1" vertex="1">
          <mxGeometry x="2640" y="1380" width="180" height="120" as="geometry" />
        </mxCell>
        <mxCell id="Oq5GghOHbWDhTfEL8BB2-396" value="MusicZone" style="swimlane;fontStyle=2;align=center;verticalAlign=top;childLayout=stackLayout;horizontal=1;startSize=26;horizontalStack=0;resizeParent=1;resizeLast=0;collapsible=1;marginBottom=0;rounded=0;shadow=0;strokeWidth=1;" parent="WIyWlLk6GJQsqaUBKTNV-1" vertex="1">
          <mxGeometry x="1880" y="2040" width="280" height="250" as="geometry">
            <mxRectangle x="230" y="140" width="160" height="26" as="alternateBounds" />
          </mxGeometry>
        </mxCell>
        <mxCell id="Oq5GghOHbWDhTfEL8BB2-397" value="+ AudioSource audioSource;" style="text;align=left;verticalAlign=top;spacingLeft=4;spacingRight=4;overflow=hidden;rotatable=0;points=[[0,0.5],[1,0.5]];portConstraint=eastwest;" parent="Oq5GghOHbWDhTfEL8BB2-396" vertex="1">
          <mxGeometry y="26" width="280" height="26" as="geometry" />
        </mxCell>
        <mxCell id="Oq5GghOHbWDhTfEL8BB2-398" value="+ float fadeTime;" style="text;align=left;verticalAlign=top;spacingLeft=4;spacingRight=4;overflow=hidden;rotatable=0;points=[[0,0.5],[1,0.5]];portConstraint=eastwest;rounded=0;shadow=0;html=0;" parent="Oq5GghOHbWDhTfEL8BB2-396" vertex="1">
          <mxGeometry y="52" width="280" height="26" as="geometry" />
        </mxCell>
        <mxCell id="Oq5GghOHbWDhTfEL8BB2-399" value="+ float maxVolume;" style="text;align=left;verticalAlign=top;spacingLeft=4;spacingRight=4;overflow=hidden;rotatable=0;points=[[0,0.5],[1,0.5]];portConstraint=eastwest;rounded=0;shadow=0;html=0;" parent="Oq5GghOHbWDhTfEL8BB2-396" vertex="1">
          <mxGeometry y="78" width="280" height="26" as="geometry" />
        </mxCell>
        <mxCell id="Oq5GghOHbWDhTfEL8BB2-400" value="- float targetVolume;" style="text;align=left;verticalAlign=top;spacingLeft=4;spacingRight=4;overflow=hidden;rotatable=0;points=[[0,0.5],[1,0.5]];portConstraint=eastwest;rounded=0;shadow=0;html=0;" parent="Oq5GghOHbWDhTfEL8BB2-396" vertex="1">
          <mxGeometry y="104" width="280" height="26" as="geometry" />
        </mxCell>
        <mxCell id="Oq5GghOHbWDhTfEL8BB2-410" value="" style="line;html=1;strokeWidth=1;align=left;verticalAlign=middle;spacingTop=-1;spacingLeft=3;spacingRight=3;rotatable=0;labelPosition=right;points=[];portConstraint=eastwest;" parent="Oq5GghOHbWDhTfEL8BB2-396" vertex="1">
          <mxGeometry y="130" width="280" height="8" as="geometry" />
        </mxCell>
        <mxCell id="Oq5GghOHbWDhTfEL8BB2-411" value="- void Start()" style="text;align=left;verticalAlign=top;spacingLeft=4;spacingRight=4;overflow=hidden;rotatable=0;points=[[0,0.5],[1,0.5]];portConstraint=eastwest;rounded=0;shadow=0;html=0;" parent="Oq5GghOHbWDhTfEL8BB2-396" vertex="1">
          <mxGeometry y="138" width="280" height="26" as="geometry" />
        </mxCell>
        <mxCell id="Oq5GghOHbWDhTfEL8BB2-412" value="- void Update()" style="text;align=left;verticalAlign=top;spacingLeft=4;spacingRight=4;overflow=hidden;rotatable=0;points=[[0,0.5],[1,0.5]];portConstraint=eastwest;rounded=0;shadow=0;html=0;" parent="Oq5GghOHbWDhTfEL8BB2-396" vertex="1">
          <mxGeometry y="164" width="280" height="26" as="geometry" />
        </mxCell>
        <mxCell id="Oq5GghOHbWDhTfEL8BB2-413" value="" style="line;html=1;strokeWidth=1;align=left;verticalAlign=middle;spacingTop=-1;spacingLeft=3;spacingRight=3;rotatable=0;labelPosition=right;points=[];portConstraint=eastwest;" parent="Oq5GghOHbWDhTfEL8BB2-396" vertex="1">
          <mxGeometry y="190" width="280" height="8" as="geometry" />
        </mxCell>
        <mxCell id="Oq5GghOHbWDhTfEL8BB2-414" value="- void OnTriggerEnter(Collider other)" style="text;align=left;verticalAlign=top;spacingLeft=4;spacingRight=4;overflow=hidden;rotatable=0;points=[[0,0.5],[1,0.5]];portConstraint=eastwest;rounded=0;shadow=0;html=0;" parent="Oq5GghOHbWDhTfEL8BB2-396" vertex="1">
          <mxGeometry y="198" width="280" height="26" as="geometry" />
        </mxCell>
        <mxCell id="Oq5GghOHbWDhTfEL8BB2-415" value="- void OnTriggerExit(Collider other)" style="text;align=left;verticalAlign=top;spacingLeft=4;spacingRight=4;overflow=hidden;rotatable=0;points=[[0,0.5],[1,0.5]];portConstraint=eastwest;rounded=0;shadow=0;html=0;" parent="Oq5GghOHbWDhTfEL8BB2-396" vertex="1">
          <mxGeometry y="224" width="280" height="26" as="geometry" />
        </mxCell>
        <mxCell id="Oq5GghOHbWDhTfEL8BB2-416" value="NPC" style="swimlane;fontStyle=2;align=center;verticalAlign=top;childLayout=stackLayout;horizontal=1;startSize=26;horizontalStack=0;resizeParent=1;resizeLast=0;collapsible=1;marginBottom=0;rounded=0;shadow=0;strokeWidth=1;" parent="WIyWlLk6GJQsqaUBKTNV-1" vertex="1">
          <mxGeometry x="2600" y="1480" width="280" height="848" as="geometry">
            <mxRectangle x="230" y="140" width="160" height="26" as="alternateBounds" />
          </mxGeometry>
        </mxCell>
        <mxCell id="Oq5GghOHbWDhTfEL8BB2-417" value="+ int health;" style="text;align=left;verticalAlign=top;spacingLeft=4;spacingRight=4;overflow=hidden;rotatable=0;points=[[0,0.5],[1,0.5]];portConstraint=eastwest;" parent="Oq5GghOHbWDhTfEL8BB2-416" vertex="1">
          <mxGeometry y="26" width="280" height="26" as="geometry" />
        </mxCell>
        <mxCell id="Oq5GghOHbWDhTfEL8BB2-418" value="+ float walkSpeed;" style="text;align=left;verticalAlign=top;spacingLeft=4;spacingRight=4;overflow=hidden;rotatable=0;points=[[0,0.5],[1,0.5]];portConstraint=eastwest;rounded=0;shadow=0;html=0;" parent="Oq5GghOHbWDhTfEL8BB2-416" vertex="1">
          <mxGeometry y="52" width="280" height="26" as="geometry" />
        </mxCell>
        <mxCell id="Oq5GghOHbWDhTfEL8BB2-419" value="+ float runSpeed;" style="text;align=left;verticalAlign=top;spacingLeft=4;spacingRight=4;overflow=hidden;rotatable=0;points=[[0,0.5],[1,0.5]];portConstraint=eastwest;rounded=0;shadow=0;html=0;" parent="Oq5GghOHbWDhTfEL8BB2-416" vertex="1">
          <mxGeometry y="78" width="280" height="26" as="geometry" />
        </mxCell>
        <mxCell id="Oq5GghOHbWDhTfEL8BB2-420" value="+ ItemData[] dropOnDeath;" style="text;align=left;verticalAlign=top;spacingLeft=4;spacingRight=4;overflow=hidden;rotatable=0;points=[[0,0.5],[1,0.5]];portConstraint=eastwest;rounded=0;shadow=0;html=0;" parent="Oq5GghOHbWDhTfEL8BB2-416" vertex="1">
          <mxGeometry y="104" width="280" height="26" as="geometry" />
        </mxCell>
        <mxCell id="Oq5GghOHbWDhTfEL8BB2-421" value="NavMeshAgent agent;" style="text;align=left;verticalAlign=top;spacingLeft=4;spacingRight=4;overflow=hidden;rotatable=0;points=[[0,0.5],[1,0.5]];portConstraint=eastwest;rounded=0;shadow=0;html=0;" parent="Oq5GghOHbWDhTfEL8BB2-416" vertex="1">
          <mxGeometry y="130" width="280" height="26" as="geometry" />
        </mxCell>
        <mxCell id="Oq5GghOHbWDhTfEL8BB2-422" value="+ float detectDistance;" style="text;align=left;verticalAlign=top;spacingLeft=4;spacingRight=4;overflow=hidden;rotatable=0;points=[[0,0.5],[1,0.5]];portConstraint=eastwest;rounded=0;shadow=0;html=0;" parent="Oq5GghOHbWDhTfEL8BB2-416" vertex="1">
          <mxGeometry y="156" width="280" height="26" as="geometry" />
        </mxCell>
        <mxCell id="Oq5GghOHbWDhTfEL8BB2-423" value="- AIState aiState;" style="text;align=left;verticalAlign=top;spacingLeft=4;spacingRight=4;overflow=hidden;rotatable=0;points=[[0,0.5],[1,0.5]];portConstraint=eastwest;rounded=0;shadow=0;html=0;" parent="Oq5GghOHbWDhTfEL8BB2-416" vertex="1">
          <mxGeometry y="182" width="280" height="26" as="geometry" />
        </mxCell>
        <mxCell id="Oq5GghOHbWDhTfEL8BB2-424" value="+ float minWanderDistance;" style="text;align=left;verticalAlign=top;spacingLeft=4;spacingRight=4;overflow=hidden;rotatable=0;points=[[0,0.5],[1,0.5]];portConstraint=eastwest;rounded=0;shadow=0;html=0;" parent="Oq5GghOHbWDhTfEL8BB2-416" vertex="1">
          <mxGeometry y="208" width="280" height="26" as="geometry" />
        </mxCell>
        <mxCell id="Oq5GghOHbWDhTfEL8BB2-425" value="+ float maxWanderDistance;" style="text;align=left;verticalAlign=top;spacingLeft=4;spacingRight=4;overflow=hidden;rotatable=0;points=[[0,0.5],[1,0.5]];portConstraint=eastwest;rounded=0;shadow=0;html=0;" parent="Oq5GghOHbWDhTfEL8BB2-416" vertex="1">
          <mxGeometry y="234" width="280" height="26" as="geometry" />
        </mxCell>
        <mxCell id="Oq5GghOHbWDhTfEL8BB2-426" value="+ float minWanderWaitTime;" style="text;align=left;verticalAlign=top;spacingLeft=4;spacingRight=4;overflow=hidden;rotatable=0;points=[[0,0.5],[1,0.5]];portConstraint=eastwest;rounded=0;shadow=0;html=0;" parent="Oq5GghOHbWDhTfEL8BB2-416" vertex="1">
          <mxGeometry y="260" width="280" height="26" as="geometry" />
        </mxCell>
        <mxCell id="Oq5GghOHbWDhTfEL8BB2-427" value="+ float maxWanderWaitTime;" style="text;align=left;verticalAlign=top;spacingLeft=4;spacingRight=4;overflow=hidden;rotatable=0;points=[[0,0.5],[1,0.5]];portConstraint=eastwest;rounded=0;shadow=0;html=0;" parent="Oq5GghOHbWDhTfEL8BB2-416" vertex="1">
          <mxGeometry y="286" width="280" height="26" as="geometry" />
        </mxCell>
        <mxCell id="Oq5GghOHbWDhTfEL8BB2-428" value="+ int damage;" style="text;align=left;verticalAlign=top;spacingLeft=4;spacingRight=4;overflow=hidden;rotatable=0;points=[[0,0.5],[1,0.5]];portConstraint=eastwest;rounded=0;shadow=0;html=0;" parent="Oq5GghOHbWDhTfEL8BB2-416" vertex="1">
          <mxGeometry y="312" width="280" height="26" as="geometry" />
        </mxCell>
        <mxCell id="Oq5GghOHbWDhTfEL8BB2-429" value="- public float attackRate;" style="text;align=left;verticalAlign=top;spacingLeft=4;spacingRight=4;overflow=hidden;rotatable=0;points=[[0,0.5],[1,0.5]];portConstraint=eastwest;rounded=0;shadow=0;html=0;" parent="Oq5GghOHbWDhTfEL8BB2-416" vertex="1">
          <mxGeometry y="338" width="280" height="26" as="geometry" />
        </mxCell>
        <mxCell id="Oq5GghOHbWDhTfEL8BB2-435" value="- float lastAttackTime;" style="text;align=left;verticalAlign=top;spacingLeft=4;spacingRight=4;overflow=hidden;rotatable=0;points=[[0,0.5],[1,0.5]];portConstraint=eastwest;rounded=0;shadow=0;html=0;" parent="Oq5GghOHbWDhTfEL8BB2-416" vertex="1">
          <mxGeometry y="364" width="280" height="26" as="geometry" />
        </mxCell>
        <mxCell id="Oq5GghOHbWDhTfEL8BB2-436" value="- public float attackDistance;" style="text;align=left;verticalAlign=top;spacingLeft=4;spacingRight=4;overflow=hidden;rotatable=0;points=[[0,0.5],[1,0.5]];portConstraint=eastwest;rounded=0;shadow=0;html=0;" parent="Oq5GghOHbWDhTfEL8BB2-416" vertex="1">
          <mxGeometry y="390" width="280" height="26" as="geometry" />
        </mxCell>
        <mxCell id="Oq5GghOHbWDhTfEL8BB2-437" value="- float playerDistance;" style="text;align=left;verticalAlign=top;spacingLeft=4;spacingRight=4;overflow=hidden;rotatable=0;points=[[0,0.5],[1,0.5]];portConstraint=eastwest;rounded=0;shadow=0;html=0;" parent="Oq5GghOHbWDhTfEL8BB2-416" vertex="1">
          <mxGeometry y="416" width="280" height="26" as="geometry" />
        </mxCell>
        <mxCell id="Oq5GghOHbWDhTfEL8BB2-438" value="- public float fieldOfView = 120f;" style="text;align=left;verticalAlign=top;spacingLeft=4;spacingRight=4;overflow=hidden;rotatable=0;points=[[0,0.5],[1,0.5]];portConstraint=eastwest;rounded=0;shadow=0;html=0;" parent="Oq5GghOHbWDhTfEL8BB2-416" vertex="1">
          <mxGeometry y="442" width="280" height="26" as="geometry" />
        </mxCell>
        <mxCell id="Oq5GghOHbWDhTfEL8BB2-439" value="- Animator animator;" style="text;align=left;verticalAlign=top;spacingLeft=4;spacingRight=4;overflow=hidden;rotatable=0;points=[[0,0.5],[1,0.5]];portConstraint=eastwest;rounded=0;shadow=0;html=0;" parent="Oq5GghOHbWDhTfEL8BB2-416" vertex="1">
          <mxGeometry y="468" width="280" height="26" as="geometry" />
        </mxCell>
        <mxCell id="Oq5GghOHbWDhTfEL8BB2-440" value="- SkinnedMeshRenderer[] meshRenderers;" style="text;align=left;verticalAlign=top;spacingLeft=4;spacingRight=4;overflow=hidden;rotatable=0;points=[[0,0.5],[1,0.5]];portConstraint=eastwest;rounded=0;shadow=0;html=0;" parent="Oq5GghOHbWDhTfEL8BB2-416" vertex="1">
          <mxGeometry y="494" width="280" height="26" as="geometry" />
        </mxCell>
        <mxCell id="Oq5GghOHbWDhTfEL8BB2-430" value="" style="line;html=1;strokeWidth=1;align=left;verticalAlign=middle;spacingTop=-1;spacingLeft=3;spacingRight=3;rotatable=0;labelPosition=right;points=[];portConstraint=eastwest;" parent="Oq5GghOHbWDhTfEL8BB2-416" vertex="1">
          <mxGeometry y="520" width="280" height="8" as="geometry" />
        </mxCell>
        <mxCell id="Oq5GghOHbWDhTfEL8BB2-431" value="- void Awake()" style="text;align=left;verticalAlign=top;spacingLeft=4;spacingRight=4;overflow=hidden;rotatable=0;points=[[0,0.5],[1,0.5]];portConstraint=eastwest;rounded=0;shadow=0;html=0;" parent="Oq5GghOHbWDhTfEL8BB2-416" vertex="1">
          <mxGeometry y="528" width="280" height="26" as="geometry" />
        </mxCell>
        <mxCell id="Oq5GghOHbWDhTfEL8BB2-441" value="- void Start()" style="text;align=left;verticalAlign=top;spacingLeft=4;spacingRight=4;overflow=hidden;rotatable=0;points=[[0,0.5],[1,0.5]];portConstraint=eastwest;rounded=0;shadow=0;html=0;" parent="Oq5GghOHbWDhTfEL8BB2-416" vertex="1">
          <mxGeometry y="554" width="280" height="26" as="geometry" />
        </mxCell>
        <mxCell id="Oq5GghOHbWDhTfEL8BB2-432" value="- void Update()" style="text;align=left;verticalAlign=top;spacingLeft=4;spacingRight=4;overflow=hidden;rotatable=0;points=[[0,0.5],[1,0.5]];portConstraint=eastwest;rounded=0;shadow=0;html=0;" parent="Oq5GghOHbWDhTfEL8BB2-416" vertex="1">
          <mxGeometry y="580" width="280" height="26" as="geometry" />
        </mxCell>
        <mxCell id="Oq5GghOHbWDhTfEL8BB2-433" value="" style="line;html=1;strokeWidth=1;align=left;verticalAlign=middle;spacingTop=-1;spacingLeft=3;spacingRight=3;rotatable=0;labelPosition=right;points=[];portConstraint=eastwest;" parent="Oq5GghOHbWDhTfEL8BB2-416" vertex="1">
          <mxGeometry y="606" width="280" height="8" as="geometry" />
        </mxCell>
        <mxCell id="Oq5GghOHbWDhTfEL8BB2-434" value="- public void SetState(AIState state)" style="text;align=left;verticalAlign=top;spacingLeft=4;spacingRight=4;overflow=hidden;rotatable=0;points=[[0,0.5],[1,0.5]];portConstraint=eastwest;rounded=0;shadow=0;html=0;" parent="Oq5GghOHbWDhTfEL8BB2-416" vertex="1">
          <mxGeometry y="614" width="280" height="26" as="geometry" />
        </mxCell>
        <mxCell id="Oq5GghOHbWDhTfEL8BB2-442" value="- void PassiveUpdate()" style="text;align=left;verticalAlign=top;spacingLeft=4;spacingRight=4;overflow=hidden;rotatable=0;points=[[0,0.5],[1,0.5]];portConstraint=eastwest;rounded=0;shadow=0;html=0;" parent="Oq5GghOHbWDhTfEL8BB2-416" vertex="1">
          <mxGeometry y="640" width="280" height="26" as="geometry" />
        </mxCell>
        <mxCell id="Oq5GghOHbWDhTfEL8BB2-443" value="- void WanderToNewLocation()" style="text;align=left;verticalAlign=top;spacingLeft=4;spacingRight=4;overflow=hidden;rotatable=0;points=[[0,0.5],[1,0.5]];portConstraint=eastwest;rounded=0;shadow=0;html=0;" parent="Oq5GghOHbWDhTfEL8BB2-416" vertex="1">
          <mxGeometry y="666" width="280" height="26" as="geometry" />
        </mxCell>
        <mxCell id="Oq5GghOHbWDhTfEL8BB2-444" value="- Vector3 GetWanderLocation()" style="text;align=left;verticalAlign=top;spacingLeft=4;spacingRight=4;overflow=hidden;rotatable=0;points=[[0,0.5],[1,0.5]];portConstraint=eastwest;rounded=0;shadow=0;html=0;" parent="Oq5GghOHbWDhTfEL8BB2-416" vertex="1">
          <mxGeometry y="692" width="280" height="26" as="geometry" />
        </mxCell>
        <mxCell id="Oq5GghOHbWDhTfEL8BB2-445" value="- void AttackingUpdate()" style="text;align=left;verticalAlign=top;spacingLeft=4;spacingRight=4;overflow=hidden;rotatable=0;points=[[0,0.5],[1,0.5]];portConstraint=eastwest;rounded=0;shadow=0;html=0;" parent="Oq5GghOHbWDhTfEL8BB2-416" vertex="1">
          <mxGeometry y="718" width="280" height="26" as="geometry" />
        </mxCell>
        <mxCell id="Oq5GghOHbWDhTfEL8BB2-446" value="- bool IsPlayerInFOV()" style="text;align=left;verticalAlign=top;spacingLeft=4;spacingRight=4;overflow=hidden;rotatable=0;points=[[0,0.5],[1,0.5]];portConstraint=eastwest;rounded=0;shadow=0;html=0;" parent="Oq5GghOHbWDhTfEL8BB2-416" vertex="1">
          <mxGeometry y="744" width="280" height="26" as="geometry" />
        </mxCell>
        <mxCell id="Oq5GghOHbWDhTfEL8BB2-447" value="- public void TakePhysicalDamage(int damage)" style="text;align=left;verticalAlign=top;spacingLeft=4;spacingRight=4;overflow=hidden;rotatable=0;points=[[0,0.5],[1,0.5]];portConstraint=eastwest;rounded=0;shadow=0;html=0;" parent="Oq5GghOHbWDhTfEL8BB2-416" vertex="1">
          <mxGeometry y="770" width="280" height="26" as="geometry" />
        </mxCell>
        <mxCell id="Oq5GghOHbWDhTfEL8BB2-448" value="- void Die()" style="text;align=left;verticalAlign=top;spacingLeft=4;spacingRight=4;overflow=hidden;rotatable=0;points=[[0,0.5],[1,0.5]];portConstraint=eastwest;rounded=0;shadow=0;html=0;" parent="Oq5GghOHbWDhTfEL8BB2-416" vertex="1">
          <mxGeometry y="796" width="280" height="26" as="geometry" />
        </mxCell>
        <mxCell id="Oq5GghOHbWDhTfEL8BB2-482" value="- IEnumerator DamageFlash()" style="text;align=left;verticalAlign=top;spacingLeft=4;spacingRight=4;overflow=hidden;rotatable=0;points=[[0,0.5],[1,0.5]];portConstraint=eastwest;rounded=0;shadow=0;html=0;" parent="Oq5GghOHbWDhTfEL8BB2-416" vertex="1">
          <mxGeometry y="822" width="280" height="26" as="geometry" />
        </mxCell>
        <mxCell id="LP36ybEA6oSqAnIo6ZeY-0" value="JumpBlock" style="swimlane;fontStyle=2;align=center;verticalAlign=top;childLayout=stackLayout;horizontal=1;startSize=26;horizontalStack=0;resizeParent=1;resizeLast=0;collapsible=1;marginBottom=0;rounded=0;shadow=0;strokeWidth=1;" vertex="1" parent="WIyWlLk6GJQsqaUBKTNV-1">
          <mxGeometry x="2240" y="2040" width="280" height="120" as="geometry">
            <mxRectangle x="230" y="140" width="160" height="26" as="alternateBounds" />
          </mxGeometry>
        </mxCell>
        <mxCell id="LP36ybEA6oSqAnIo6ZeY-1" value="+ float jumpForce = 10f;" style="text;align=left;verticalAlign=top;spacingLeft=4;spacingRight=4;overflow=hidden;rotatable=0;points=[[0,0.5],[1,0.5]];portConstraint=eastwest;" vertex="1" parent="LP36ybEA6oSqAnIo6ZeY-0">
          <mxGeometry y="26" width="280" height="26" as="geometry" />
        </mxCell>
        <mxCell id="LP36ybEA6oSqAnIo6ZeY-5" value="" style="line;html=1;strokeWidth=1;align=left;verticalAlign=middle;spacingTop=-1;spacingLeft=3;spacingRight=3;rotatable=0;labelPosition=right;points=[];portConstraint=eastwest;" vertex="1" parent="LP36ybEA6oSqAnIo6ZeY-0">
          <mxGeometry y="52" width="280" height="8" as="geometry" />
        </mxCell>
        <mxCell id="LP36ybEA6oSqAnIo6ZeY-7" value=" " style="text;align=left;verticalAlign=top;spacingLeft=4;spacingRight=4;overflow=hidden;rotatable=0;points=[[0,0.5],[1,0.5]];portConstraint=eastwest;rounded=0;shadow=0;html=0;" vertex="1" parent="LP36ybEA6oSqAnIo6ZeY-0">
          <mxGeometry y="60" width="280" height="26" as="geometry" />
        </mxCell>
        <mxCell id="LP36ybEA6oSqAnIo6ZeY-8" value="" style="line;html=1;strokeWidth=1;align=left;verticalAlign=middle;spacingTop=-1;spacingLeft=3;spacingRight=3;rotatable=0;labelPosition=right;points=[];portConstraint=eastwest;" vertex="1" parent="LP36ybEA6oSqAnIo6ZeY-0">
          <mxGeometry y="86" width="280" height="8" as="geometry" />
        </mxCell>
        <mxCell id="LP36ybEA6oSqAnIo6ZeY-9" value="- void OnTriggerEnter(Collider other)" style="text;align=left;verticalAlign=top;spacingLeft=4;spacingRight=4;overflow=hidden;rotatable=0;points=[[0,0.5],[1,0.5]];portConstraint=eastwest;rounded=0;shadow=0;html=0;" vertex="1" parent="LP36ybEA6oSqAnIo6ZeY-0">
          <mxGeometry y="94" width="280" height="26" as="geometry" />
        </mxCell>
      </root>
    </mxGraphModel>
  </diagram>
</mxfile>
